<?xml version="1.0" encoding="utf-8"?>
<!-- Generator: Adobe Illustrator 24.0.0, SVG Export Plug-In . SVG Version: 6.00 Build 0)  -->
<svg version="1.1" id="Layer_1" xmlns="http://www.w3.org/2000/svg" xmlns:xlink="http://www.w3.org/1999/xlink" x="0px" y="0px"
	 viewBox="0 0 67.8 25.7" style="enable-background:new 0 0 67.8 25.7;" xml:space="preserve">
<style type="text/css">
	.st0{opacity:0.68;fill:#CD4354;enable-background:new    ;}
	.st1{enable-background:new    ;}
	.st2{fill:#FFFFFF;}
</style>
<rect x="6.5" y="1.8" transform="matrix(0.9992 -4.080653e-02 4.080653e-02 0.9992 -0.3285 1.4999)" class="st0" width="60.2" height="14"/>
<rect x="1.5" y="9.8" transform="matrix(0.9992 -4.080511e-02 4.080511e-02 0.9992 -0.6591 1.3025)" class="st0" width="60.2" height="14"/>
<g class="st1">
	<path class="st2" d="M22.5,18.5h-2l-0.3-2.3h-2.5l-0.3,2.3h-1.8l2-12.8h2.9L22.5,18.5z M18,14.5h1.9l-1-6.5L18,14.5z"/>
	<path class="st2" d="M26.1,13.5l-0.6,1.2v3.9h-2V5.8h2v5.6l2.6-5.6h2l-2.8,5.7l2.8,7.1H28L26.1,13.5z"/>
	<path class="st2" d="M31,5.8h2v11h2.3v-11h2v11h0.9v3.5h-2v-1.7H31V5.8z"/>
	<path class="st2" d="M41.4,18.5h-2.1V5.8h1.8v8.1l0.7-2.8l1.6-5.3h2.2v12.8h-1.8v-9l-0.8,3.1L41.4,18.5z"/>
	<path class="st2" d="M46.8,18.5c0.1-0.2,0.2-0.5,0.2-0.7c0-0.2,0-0.5,0-0.8v-2c0-0.7,0.1-1.2,0.3-1.7c0.2-0.5,0.5-0.8,1-1
		C47.4,11.9,47,11,47,9.7v-1c0-1,0.2-1.7,0.7-2.2s1.2-0.7,2.3-0.7h3v12.8h-2v-5.2h-0.7c-0.5,0-0.8,0.1-1,0.4C49.1,14,49,14.4,49,15
		v2c0,0.3,0,0.5,0,0.6c0,0.2,0,0.3,0,0.4c0,0.1,0,0.2-0.1,0.3s0,0.2-0.1,0.2H46.8z M50,7.6c-0.4,0-0.6,0.1-0.8,0.3
		c-0.2,0.2-0.2,0.5-0.2,1v1.3c0,0.5,0.1,0.9,0.3,1.1c0.2,0.2,0.5,0.3,0.9,0.3H51V7.6H50z"/>
</g>
</svg>
