<?xml version="1.0" encoding="utf-8"?>
<!-- Generator: Adobe Illustrator 24.0.0, SVG Export Plug-In . SVG Version: 6.00 Build 0)  -->
<svg version="1.2" baseProfile="tiny" id="Layer_1" xmlns="http://www.w3.org/2000/svg" xmlns:xlink="http://www.w3.org/1999/xlink"
	 x="0px" y="0px" viewBox="0 0 23 23" xml:space="preserve">
<g>
	<path fill="#424242" d="M7.8859658,15.2764959c0.0347176-0.0036364,0.064599-0.0181437,0.0960512-0.0298405
		c0.0904307,0.0193424,0.1820598,0.0318661,0.2746806,0.0318661h9.9192419c0.620573,0,1.2871456-0.4512434,1.517395-1.0275927
		l2.6924973-6.7307019c0.1322155-0.3305588,0.1073761-0.6687636-0.0677814-0.9274907
		c-0.1751995-0.2587266-0.4797192-0.4068542-0.8356953-0.4068542H6.1901889c-0.3449006,0-0.6548767,0.1437049-0.8506165,0.3943315
		C5.1438327,6.8308396,5.0794401,7.1666474,5.1629686,7.5012565l1.66573,6.6620936
		c0.051456,0.2062378,0.1578398,0.3951168,0.2958412,0.5594044c-0.3180356,0.2098751-0.6760378,0.5815983-0.9107518,1.2447414
		c-0.1083674,0.3067522-0.1237011,0.7765532,0.1588321,1.1761332c0.1981783,0.280508,0.6142902,0.6147022,1.4707756,0.6147022
		h11.9857521c0.2282238,0,0.4133015-0.1848698,0.4133015-0.4133015s-0.1850777-0.4133015-0.4133015-0.4133015H7.8433957
		c-0.2774906,0-0.6407418-0.0459995-0.7959366-0.2651749c-0.1075411-0.1521778-0.0825362-0.3438663-0.0542665-0.4233856
		C7.3003173,15.3749857,7.8482313,15.281745,7.8859658,15.2764959z M5.9649806,7.301053
		C5.9431581,7.2138877,5.9524574,7.1384187,5.9910183,7.0891533C6.0295382,7.0395155,6.100378,7.0124855,6.1901889,7.0124855
		h15.2921658c0.0839405,0,0.1364288,0.0221944,0.15135,0.0439754c0.0147552,0.0218225,0.0157471,0.0787339-0.0155411,0.1570134
		l-2.6924934,6.7307024c-0.1061783,0.2655878-0.463562,0.507741-0.7497311,0.507741H8.2566977
		c-0.2637691,0-0.5620494-0.2328959-0.6259871-0.4887705L5.9649806,7.301053z"/>
	<path fill="#424242" d="M5.4493451,4.9814792L4.6275773,2.261127C4.2340727,0.7112453,3.0952609,0.3689901,2.5737979,0.3996571
		H0.8172655c-0.2282252,0-0.4133018,0.1848699-0.4133018,0.4133018s0.1850766,0.4133018,0.4133018,0.4133018h1.7767017
		c0.094274,0,0.9186459,0.0032238,1.2373016,1.2560654l0.8266034,2.7381244
		c0.05406,0.1787944,0.2181406,0.2938161,0.3955297,0.2938161c0.0395532,0,0.0799327-0.005662,0.1196923-0.0177717
		C5.3916483,5.4307384,5.5151429,5.1998682,5.4493451,4.9814792z"/>
	<path fill="#424242" d="M7.8433957,18.5849361c-1.1393905,0-2.0665088,0.9271183-2.0665088,2.0665092
		c0,1.139389,0.9271183,2.0665073,2.0665088,2.0665073s2.0665088-0.9271183,2.0665088-2.0665073
		C9.9099045,19.5120544,8.9827862,18.5849361,7.8433957,18.5849361z M7.8433957,21.8913498
		c-0.6837249,0-1.2399054-0.556181-1.2399054-1.2399044c0-0.6837254,0.5561805-1.2399063,1.2399054-1.2399063
		s1.2399058,0.556181,1.2399058,1.2399063C9.0833015,21.3351688,8.5271206,21.8913498,7.8433957,21.8913498z"/>
	<path fill="#424242" d="M17.7626381,18.5849361c-1.1393909,0-2.0665083,0.9271183-2.0665083,2.0665092
		c0,1.139389,0.9271173,2.0665073,2.0665083,2.0665073c1.139389,0,2.0665092-0.9271183,2.0665092-2.0665073
		C19.8291473,19.5120544,18.9020271,18.5849361,17.7626381,18.5849361z M17.7626381,21.8913498
		c-0.6837254,0-1.2399044-0.556181-1.2399044-1.2399044c0-0.6837254,0.556179-1.2399063,1.2399044-1.2399063
		s1.2399063,0.556181,1.2399063,1.2399063C19.0025444,21.3351688,18.4463634,21.8913498,17.7626381,21.8913498z"/>
</g>
</svg>
