<svg xmlns="http://www.w3.org/2000/svg" viewBox="0 0 36.69 60.01">
   <g>
      <g>
         <path class="cls-1" d="M36,36.22H27.42a2.58,2.58,0,0,1-2.35-1.51L24,32.33a3,3,0,0,1,0-2.54l1.1-2.38a2.58,2.58,0,0,1,2.35-1.51H36a.73.73,0,0,1,.73.73v8.86A.73.73,0,0,1,36,36.22Zm-8.54-8.87a1.14,1.14,0,0,0-1,.66l-1.1,2.39a1.6,1.6,0,0,0,0,1.32l1.1,2.39a1.14,1.14,0,0,0,1,.66h7.82V27.35Z"/>
         <path class="cls-1" d="M30.11,60H3.82a.73.73,0,0,1-.73-.72V3.82a.73.73,0,0,1,.73-.73H9.48a2.14,2.14,0,0,1,2.14,2.14.68.68,0,0,0,.68.69H23.87a.68.68,0,0,0,.68-.69,2.14,2.14,0,0,1,2.14-2.14h3.42A4.22,4.22,0,0,1,34.32,7.3V26.63a.73.73,0,0,1-1.45,0V7.3a2.77,2.77,0,0,0-2.76-2.76H26.69a.68.68,0,0,0-.68.69,2.14,2.14,0,0,1-2.14,2.14H12.3a2.14,2.14,0,0,1-2.14-2.14.68.68,0,0,0-.68-.69H4.54v54H30.11a2.76,2.76,0,0,0,2.76-2.76V35.49a.73.73,0,0,1,1.45,0V55.8A4.21,4.21,0,0,1,30.11,60Z"/>
         <path class="cls-1" d="M30.69,4.6A.73.73,0,0,1,30,3.94a2.75,2.75,0,0,0-2.74-2.49H.85A.72.72,0,0,1,.12.73.73.73,0,0,1,.85,0H27.23a4.19,4.19,0,0,1,4.19,3.8.73.73,0,0,1-.66.79Z"/>
         <path class="cls-1" d="M3.82,60a.71.71,0,0,1-.51-.21L.21,56.71A.75.75,0,0,1,0,56.2V.73A.72.72,0,0,1,.45.06a.71.71,0,0,1,.79.15l3.09,3.1a.72.72,0,1,1-1,1L1.45,2.48V55.9l2.88,2.87a.72.72,0,0,1,0,1A.73.73,0,0,1,3.82,60Z"/>
      </g>
   </g>
</svg>