<svg xmlns="http://www.w3.org/2000/svg" xmlns:xlink="http://www.w3.org/1999/xlink" viewBox="0 0 52 54"><defs><style>.cls-1{fill:none;}.cls-2{clip-path:url(#clip-path);}.cls-3{fill:#fff;}</style><clipPath id="clip-path"><rect class="cls-1" width="52" height="54"/></clipPath></defs><title>delivery</title><g id="Слой_2" data-name="Слой 2"><g id="Слой_1-2" data-name="Слой 1"><g class="cls-2"><path class="cls-3" d="M51,9.75a1,1,0,0,0-.18-.36L45,2a5.59,5.59,0,0,0-4-2H11A5.59,5.59,0,0,0,7,2L1.21,9.39A1,1,0,0,0,1,9.75,3,3,0,0,0,0,12V51a3,3,0,0,0,3,3H49a3,3,0,0,0,3-3V12a3,3,0,0,0-1-2.25M41,2a3.7,3.7,0,0,1,2.44,1.19L48,9H31V2ZM29,2V20a1,1,0,0,1-1,1H24a1,1,0,0,1-1-1V2ZM8.56,3.19A3.7,3.7,0,0,1,11,2H21V9H4ZM50,51a1,1,0,0,1-1,1H3a1,1,0,0,1-1-1V12a1,1,0,0,1,1-1H21v9a3,3,0,0,0,3,3h4a3,3,0,0,0,3-3V11H49a1,1,0,0,1,1,1Z"/><path class="cls-3" d="M44,46H25a1,1,0,0,0,0,2H44a1,1,0,0,0,0-2"/><path class="cls-3" d="M40.71,30.29a1,1,0,0,0-1.42,0l-4,4a1,1,0,0,0,1.42,1.42L39,33.41V42a1,1,0,0,0,2,0V33.41l2.29,2.3a1,1,0,0,0,1.42,0,1,1,0,0,0,0-1.42Z"/><path class="cls-3" d="M25.71,35.71,28,33.41V42a1,1,0,0,0,2,0V33.41l2.29,2.3a1,1,0,0,0,1.42,0,1,1,0,0,0,0-1.42l-4-4a1,1,0,0,0-1.42,0l-4,4a1,1,0,0,0,1.42,1.42"/></g></g></g></svg>