<svg viewBox="0 0 25 23" xmlns="http://www.w3.org/2000/svg">
<g clip-path="url(#clip0_33_232)">
<path d="M24.564 4.29365C23.9891 2.66291 22.8903 1.39037 21.4669 0.71168C20.4978 0.245082 19.4083 0 18.314 0C15.8938 0 13.6497 1.1877 12.6019 3.02111L12.486 3.21906L12.3932 3.05881C11.35 1.21598 9.10595 0.0282787 6.6857 0.0282787C5.59612 0.0282787 4.50654 0.273361 3.53752 0.739959C2.10948 1.42336 1.01062 2.6959 0.435699 4.32193C-0.231957 6.21189 -0.129954 8.42234 0.713889 10.2275C2.64731 14.3797 11.7951 22.5475 12.1846 22.8963C12.2634 22.967 12.3747 23 12.486 23C12.5091 23 12.5277 23 12.5509 23C12.6529 22.9906 12.7595 22.934 12.8337 22.8586C13.3762 22.3732 22.371 14.3184 24.2905 10.1992C25.1297 8.39406 25.2363 6.18832 24.5687 4.29836L24.564 4.29365ZM23.4466 9.79385C21.7775 13.3852 14.0485 20.4926 12.4813 21.9066C10.84 20.4172 3.20832 13.39 1.54846 9.82684C0.811255 8.23852 0.718525 6.30143 1.30736 4.64242C1.79883 3.25205 2.73077 2.16803 3.92698 1.59775C4.77546 1.19242 5.72594 0.975615 6.68106 0.975615C8.77676 0.975615 10.7055 1.97951 11.5958 3.53012L12.0872 4.3832C12.166 4.51988 12.3098 4.60943 12.4674 4.61414C12.6204 4.61414 12.7781 4.54344 12.8662 4.41148C12.8708 4.40205 12.9032 4.35492 12.9079 4.34549L13.3993 3.49242C14.2849 1.9418 16.2137 0.942623 18.3094 0.942623C19.2645 0.942623 20.215 1.15943 21.0635 1.56475C22.2597 2.13975 23.1916 3.21906 23.6831 4.61414C24.2673 6.27316 24.1792 8.21025 23.4374 9.79385H23.4466Z"/>
<path d="M6.96865 2.95515C4.84514 2.95515 3.11572 4.71314 3.11572 6.87175C3.11572 7.50802 3.26873 8.13958 3.56083 8.69573C3.64428 8.85597 3.80656 8.94552 3.97347 8.94552C4.04766 8.94552 4.12184 8.92667 4.19139 8.88896C4.41858 8.76642 4.50667 8.48364 4.38612 8.25269C4.16821 7.82851 4.04766 7.34778 4.04766 6.86704C4.04766 5.22687 5.35979 3.89306 6.97329 3.89306C7.2283 3.89306 7.43694 3.68097 7.43694 3.42175C7.43694 3.16253 7.2283 2.95044 6.97329 2.95044L6.96865 2.95515Z"/>
</g>
<defs>
<clipPath id="clip0_33_232">
<rect/>
</clipPath>
</defs>
</svg>
