<svg viewBox="0 0 22 21" xmlns="http://www.w3.org/2000/svg">
<g clip-path="url(#clip0_269_562)">
<path d="M6.34637 8.51033C6.34637 4.36838 9.8567 1 14.1732 1C18.4897 1 22 4.36838 22 8.51033C22 12.6523 18.4897 16.0207 14.1732 16.0207C9.8567 16.0207 6.34637 12.6523 6.34637 8.51033ZM14.1732 15.2696C18.0553 15.2696 21.2173 12.2392 21.2173 8.51033C21.2173 4.78145 18.0553 1.75103 14.1732 1.75103C10.2911 1.75103 7.12905 4.78145 7.12905 8.51033C7.12905 12.2392 10.2911 15.2696 14.1732 15.2696Z" />
<path d="M1.48196 18.195L5.97456 13.884C6.41677 13.4597 7.19163 13.4597 7.63384 13.884L8.46348 14.6801C8.92135 15.1195 8.92135 15.833 8.46348 16.2723L3.97089 20.5833C3.70087 20.8424 3.28213 21.0001 2.85557 21.0001C2.64425 21.0001 2.44075 20.9588 2.26856 20.8837L2.20203 20.8536L1.19629 19.8886L1.16498 19.8247C0.922346 19.3065 1.06323 18.5893 1.47805 18.1912L1.48196 18.195ZM1.86156 19.468L2.64816 20.2228C2.88688 20.2941 3.25474 20.2153 3.42301 20.0538L7.91561 15.7429C8.06823 15.5964 8.06823 15.3598 7.91561 15.2134L7.08596 14.4173C7.01161 14.3459 6.91377 14.3084 6.80811 14.3084C6.70245 14.3084 6.60462 14.3459 6.53026 14.4173L2.03767 18.7282C1.86157 18.8972 1.78721 19.2352 1.86156 19.4717V19.468Z"/>
</g>
<defs>
<clipPath id="clip0_269_562">
<rect  transform="matrix(-1 0 0 1 22 0)"/>
</clipPath>
</defs>
</svg>
