<svg xmlns="http://www.w3.org/2000/svg" viewBox="0 0 48.7 61.57"><defs><style>.cls-1{fill:#858685;}.cls-2{fill:none;}</style></defs><title>mobiles</title><g id="Слой_2" data-name="Слой 2"><g id="Layer_1" data-name="Layer 1"><g id="_Группа_" data-name="&lt;Группа&gt;"><rect class="cls-1" x="3.6" y="52.18" width="23.79" height="1.23"/><rect class="cls-1" x="3.6" y="16.48" width="23.79" height="1.23"/></g><path class="cls-1" d="M23,61.57H8a8,8,0,0,1-8-8V19.32a8,8,0,0,1,8-8H23a8,8,0,0,1,8,8V53.59A8,8,0,0,1,23,61.57Zm-15-49a6.76,6.76,0,0,0-6.75,6.76V53.59A6.76,6.76,0,0,0,8,60.34H23a6.76,6.76,0,0,0,6.76-6.75V19.32A6.76,6.76,0,0,0,23,12.56Z"/><path class="cls-1" d="M15.5,59.17a2.25,2.25,0,1,1,2.25-2.25A2.25,2.25,0,0,1,15.5,59.17Zm0-3.28a1,1,0,1,0,1,1A1,1,0,0,0,15.5,55.89Z"/><path class="cls-1" d="M18.45,15.16h-5.9a.61.61,0,1,1,0-1.22h5.9a.61.61,0,1,1,0,1.22Z"/><path class="cls-2" d="M47.33,3.12a1.76,1.76,0,0,0-1.76-1.75H24.75A1.76,1.76,0,0,0,23,3.12V6.23H47.33ZM34,4.61H32.3V3.23H34Zm5.45,0H34.89V3.23h4.52Z"/><path class="cls-1" d="M47.33,44.58a1.76,1.76,0,0,1-1.76,1.76H31v1.37H45.57a3.13,3.13,0,0,0,3.13-3.13V40.66H47.33Z"/><path class="cls-1" d="M45.57,0H24.75a3.13,3.13,0,0,0-3.13,3.12V6.23H23V3.12a1.76,1.76,0,0,1,1.76-1.75H45.57a1.76,1.76,0,0,1,1.76,1.75V6.23H48.7V3.12A3.13,3.13,0,0,0,45.57,0Z"/><polygon class="cls-1" points="23 6.23 21.62 6.23 21.62 7.61 21.62 11.43 23 11.43 23 7.61 47.33 7.61 47.33 39.29 31.04 39.29 31.04 40.66 47.33 40.66 48.7 40.66 48.7 39.29 48.7 7.61 48.7 6.23 47.33 6.23 23 6.23"/><rect class="cls-1" x="32.57" y="42.87" width="5.19" height="1.37"/><rect class="cls-1" x="32.3" y="3.23" width="1.66" height="1.37"/><rect class="cls-1" x="34.89" y="3.23" width="4.52" height="1.37"/><polygon class="cls-1" points="31.04 21.76 31.04 23.7 36.82 17.92 35.85 16.95 31.04 21.76"/><polygon class="cls-1" points="42.65 16.54 31.04 28.16 31.04 30.1 43.62 17.51 42.65 16.54"/></g></g></svg>