<svg xmlns="http://www.w3.org/2000/svg" viewBox="0 0 53.54 53.26"><defs><style>.cls-1{fill:#424242;}</style></defs><title>search</title><g id="Слой_2" data-name="Слой 2"><g id="icons"><path class="cls-1" d="M13.54,20a20,20,0,1,1,20,20A20,20,0,0,1,13.54,20Zm20,18a18,18,0,1,0-18-18A18,18,0,0,0,33.54,38Z"/><path class="cls-1" d="M37.1,6.46A14,14,0,0,1,45.66,27a1,1,0,0,1-.86.5,1,1,0,0,1-.5-.14A1,1,0,0,1,43.93,26,12,12,0,0,0,36.59,8.39a1,1,0,1,1,.51-1.93Z"/><path class="cls-1" d="M1.1,45.79,12.58,34.31a3.09,3.09,0,0,1,4.25,0L19,36.43a3,3,0,0,1,0,4.25L7.47,52.15a4.06,4.06,0,0,1-2.85,1.11A3.73,3.73,0,0,1,3.11,53L3,52.88.38,50.31.3,50.15A4.17,4.17,0,0,1,1.1,45.79Zm1,3.39,2,2a2.23,2.23,0,0,0,2-.45L17.53,39.26a1,1,0,0,0,0-1.41l-2.12-2.12a1,1,0,0,0-.71-.29,1,1,0,0,0-.7.29L2.52,47.21A2.17,2.17,0,0,0,2.07,49.18Z"/></g></g></svg>