<svg xmlns="http://www.w3.org/2000/svg" xmlns:xlink="http://www.w3.org/1999/xlink" viewBox="0 0 54.01 52.84"><defs><style>.cls-1{fill:none;}.cls-2{clip-path:url(#clip-path);}.cls-3{fill:#424242;}</style><clipPath id="clip-path" transform="translate(0 0)"><rect class="cls-1" width="54.01" height="52.84"/></clipPath></defs><title>shipping</title><g id="Слой_2" data-name="Слой 2"><g id="Слой_1-2" data-name="Слой 1"><g class="cls-2"><path class="cls-3" d="M52.83,38.85,27.39,43.49A6.4,6.4,0,0,0,21.72,40l-.36,0L13,3.76A4.84,4.84,0,0,0,10.72.68,4.76,4.76,0,0,0,7,.18L.75,1.87a1,1,0,0,0-.72,1,.89.89,0,0,0,0,.51L1.18,6.89a1,1,0,0,0,1,.69l.22,0L7.94,6.3A1,1,0,0,0,8.7,5.11a1,1,0,0,0-1.2-.76L2.8,5.41,2.2,3.55,7.48,2.11A2.82,2.82,0,0,1,9.7,2.4,2.86,2.86,0,0,1,11,4.21L19.4,40.48a6.4,6.4,0,1,0,8.72,6,6.92,6.92,0,0,0-.09-1l25.16-4.59A1,1,0,0,0,54,39.66a1,1,0,0,0-1.17-.81m-31.11,12a4.4,4.4,0,1,1,4.4-4.4,4.41,4.41,0,0,1-4.4,4.4" transform="translate(0 0)"/><path class="cls-3" d="M21.72,45a1.4,1.4,0,1,0,1.4,1.4,1.4,1.4,0,0,0-1.4-1.4" transform="translate(0 0)"/><path class="cls-3" d="M25.35,36.87a3.06,3.06,0,0,0,3,2.42,3.51,3.51,0,0,0,.55,0l19.26-3.58a3,3,0,0,0,2.36-3.51L46.68,13.82a3.06,3.06,0,0,0-3.54-2.37L23.88,15A3,3,0,0,0,22,16.28a2.94,2.94,0,0,0-.44,2.25ZM37.48,18.1,32.87,19,32,15.54l4.75-.88Zm-13.86-.7a1,1,0,0,1,.62-.41l5.83-1.08,1.09,4.45a1,1,0,0,0,1,.76.55.55,0,0,0,.18,0l6.54-1.22a1,1,0,0,0,.64-.43,1,1,0,0,0,.15-.75l-.88-4.4,4.75-.89h.18a1.06,1.06,0,0,1,1,.83l3.83,18.33a1,1,0,0,1-.14.73.91.91,0,0,1-.62.4L28.52,37.27a1.06,1.06,0,0,1-1.21-.81L23.48,18.13a1,1,0,0,1,.14-.73" transform="translate(0 0)"/></g></g></g></svg>