<svg xmlns="http://www.w3.org/2000/svg" xmlns:xlink="http://www.w3.org/1999/xlink" viewBox="0 0 54 54"><defs><style>.cls-1{fill:none;}.cls-2{clip-path:url(#clip-path);}.cls-3{fill:#f7f7f7;}</style><clipPath id="clip-path"><rect class="cls-1" width="54" height="54"/></clipPath></defs><title>shop</title><g id="Слой_2" data-name="Слой 2"><g id="Слой_1-2" data-name="Слой 1"><g class="cls-2"><path class="cls-3" d="M49,0H5A5,5,0,0,0,0,5V49a5,5,0,0,0,5,5H49a5,5,0,0,0,5-5V5a5,5,0,0,0-5-5M7,52H5a3,3,0,0,1-3-3V5A3,3,0,0,1,5,2H40a3,3,0,0,1,3,3V49a3,3,0,0,1-3,3Zm45-3a3,3,0,0,1-3,3H44a4.92,4.92,0,0,0,1-3V5a4.92,4.92,0,0,0-1-3h5a2.9,2.9,0,0,1,1.28.3l-3,3a1,1,0,0,0,0,1.42,1,1,0,0,0,1.42,0l3-3A2.87,2.87,0,0,1,52,5Z"/><path class="cls-3" d="M11,10a2,2,0,0,1,2,2,2,2,0,0,1-.21.9,1,1,0,1,0,1.78.91A4.05,4.05,0,0,0,15,12a4,4,0,0,0-8,0,4.06,4.06,0,0,0,.44,1.84,1,1,0,0,0,.9.54,1,1,0,0,0,.45-.11,1,1,0,0,0,.43-1.35A2,2,0,0,1,9,12a2,2,0,0,1,2-2"/><path class="cls-3" d="M34,8a4,4,0,0,0-4,4,4.06,4.06,0,0,0,.44,1.84,1,1,0,0,0,.89.54,1,1,0,0,0,.46-.11,1,1,0,0,0,.43-1.35A2,2,0,0,1,32,12a2,2,0,0,1,4,0,2,2,0,0,1-.21.9,1,1,0,1,0,1.78.91A4.05,4.05,0,0,0,38,12a4,4,0,0,0-4-4"/><path class="cls-3" d="M34,12a1,1,0,0,0-1,1v5.5c0,5.24-4.71,9.5-10.5,9.5S12,23.74,12,18.5V13a1,1,0,0,0-2,0v5.5C10,24.84,15.61,30,22.5,30S35,24.84,35,18.5V13a1,1,0,0,0-1-1"/></g></g></g></svg>