<svg viewBox="0 0 17 14" xmlns="http://www.w3.org/2000/svg">
  <path d="M1.79051 5.8415C6.16221 3.93584 9.07919 2.67735 10.5377 2.06792C14.7037 0.33584 15.5698 0.0339537 16.1339 0.0245197C16.3415 0.0207461 16.5452 0.0811231 16.715 0.198104C16.8339 0.301878 16.9113 0.447161 16.9282 0.603765C16.9584 0.799991 16.966 0.998104 16.9528 1.19433C16.7264 3.56603 15.7509 9.32263 15.2547 11.9792C15.0452 13.1113 14.6301 13.4887 14.2301 13.517C13.3584 13.5962 12.6981 12.9415 11.8547 12.3849C10.5339 11.5189 9.78862 10.9811 8.50749 10.1358C7.02636 9.16037 7.98674 8.62641 8.83013 7.74716C9.05089 7.51697 12.8886 4.02641 12.9641 3.70943C12.9848 3.61509 12.9584 3.51508 12.8943 3.44339C12.8018 3.3849 12.6848 3.37358 12.583 3.4132C12.4509 3.44339 10.3415 4.83773 6.25655 7.59433C5.65843 8.00565 5.11504 8.20565 4.63013 8.19433C4.09428 8.18301 3.06409 7.89244 2.29806 7.64339C1.35466 7.33773 0.611263 7.17735 0.677301 6.65848C0.709376 6.39622 1.07919 6.12452 1.79051 5.8415Z" />
</svg>
