<svg viewBox="0 0 25 23" xmlns="http://www.w3.org/2000/svg">
<path d="M22.8966 12.9056L20.5071 9.11056C19.8427 8.24593 18.6799 7.66667 17.6151 7.66667H15.0595V6.38889C15.0595 5.21333 14.1054 4.25926 12.9299 4.25926H12.9086C12.6914 1.87407 10.6853 0 8.2447 0C5.80415 0 3.79378 1.87407 3.58081 4.25926H3.13359C1.95804 4.25926 0.999703 5.21333 0.999703 6.38889V16.4109C0.995444 17.0924 0.991185 17.6759 1.34896 18.0422C1.52785 18.2211 1.77063 18.3148 2.06452 18.3148C2.11137 18.3148 2.171 18.3191 2.19656 18.3489C2.29452 18.4511 2.286 18.8259 2.28174 19.0091C2.28174 19.0687 2.28174 19.1198 2.28174 19.1709C2.28174 19.8481 2.62674 20.1506 2.91637 20.2826C3.21026 20.4189 3.56378 20.4402 3.93007 20.4444C4.05359 21.8756 5.2547 23 6.71989 23C8.18507 23 9.38192 21.8756 9.5097 20.4444H15.0595H15.8688C15.9923 21.8756 17.1977 23 18.6586 23C20.1195 23 21.3206 21.8756 21.4484 20.4444H21.8743C23.0499 20.4444 24.004 19.4904 24.004 18.3148V16.1852C24.004 15.1502 23.5099 13.6935 22.9008 12.9056H22.8966ZM19.8086 9.60037L22.198 13.3954C22.3386 13.5785 22.4706 13.8085 22.5941 14.0598H18.8886C18.1858 14.0598 17.6108 13.4848 17.6108 12.782V8.52278C18.3988 8.52278 19.3316 8.9913 19.8043 9.60037H19.8086ZM8.24044 0.851852C10.353 0.851852 12.0738 2.57259 12.0738 4.68519C12.0738 6.79778 10.353 8.51852 8.24044 8.51852C6.12785 8.51852 4.40711 6.79778 4.40711 4.68519C4.40711 2.57259 6.12785 0.851852 8.24044 0.851852ZM6.71563 22.1481C5.6423 22.1481 4.76489 21.275 4.76489 20.1974C4.76489 19.1198 5.63804 18.2467 6.71563 18.2467C7.79322 18.2467 8.66637 19.1198 8.66637 20.1974C8.66637 21.275 7.79322 22.1481 6.71563 22.1481ZM6.71563 17.3991C5.37822 17.3991 4.25804 18.3404 3.98118 19.5969C3.70859 19.5969 3.42748 19.5841 3.26989 19.5117C3.21452 19.4861 3.12507 19.4435 3.12507 19.1709V19.0346C3.13785 18.6683 3.15489 18.1189 2.80563 17.7569C2.67785 17.6248 2.44359 17.4672 2.06026 17.4672C2.00489 17.4672 1.9623 17.4587 1.94952 17.4459C1.83878 17.3352 1.84304 16.807 1.84304 16.4237V6.38889C1.84304 5.68611 2.41804 5.11111 3.12081 5.11111H3.56804C3.78526 7.4963 5.79137 9.37037 8.23192 9.37037C10.6725 9.37037 12.6786 7.4963 12.8958 5.11111H12.9171C13.6199 5.11111 14.1949 5.68611 14.1949 6.38889V19.5926H9.44155C9.1647 18.3404 8.04452 17.3991 6.70711 17.3991H6.71563ZM18.6543 22.1481C17.581 22.1481 16.7036 21.275 16.7036 20.1974C16.7036 19.1198 17.5767 18.2467 18.6543 18.2467C19.7319 18.2467 20.6051 19.1198 20.6051 20.1974C20.6051 21.275 19.7319 22.1481 18.6543 22.1481ZM23.1479 18.3148C23.1479 19.0176 22.5729 19.5926 21.8701 19.5926H21.3888C21.1119 18.3404 19.9917 17.3991 18.6543 17.3991C17.3169 17.3991 16.201 18.3404 15.9199 19.5926H15.0553V8.51852H16.759V12.7778C16.759 13.9533 17.713 14.9074 18.8886 14.9074H22.9221C23.0584 15.3589 23.1479 15.8146 23.1479 16.1852V18.3148Z"/>
<path d="M6.96312 12.3889C7.07386 12.3889 7.18035 12.3463 7.26553 12.2654L8.54331 10.9876C8.62423 10.9067 8.66683 10.8002 8.66683 10.6852V7.7037C8.66683 7.46944 8.47516 7.27777 8.2409 7.27777C8.00664 7.27777 7.81498 7.46944 7.81498 7.7037V10.5105L6.66072 11.6648C6.49461 11.8309 6.49461 12.0993 6.66072 12.2654C6.7459 12.3505 6.85238 12.3889 6.96312 12.3889Z"/>
</svg>
