<?xml version="1.0" encoding="utf-8"?>
<!-- Generator: Adobe Illustrator 24.0.0, SVG Export Plug-In . SVG Version: 6.00 Build 0)  -->
<svg version="1.2" baseProfile="tiny" id="Layer_1" xmlns="http://www.w3.org/2000/svg" xmlns:xlink="http://www.w3.org/1999/xlink"
	 x="0px" y="0px" viewBox="0 0 23 23" xml:space="preserve">
<g>
	<path fill="#424242" d="M21.3794613,19.7781925c-0.431385-1.419054-3.9184036-3.3399143-5.5394897-4.0477505
		c-0.1106796-0.0480881-0.2363997-0.0458622-0.3442764,0.0066338l-3.9314671,1.9003391l-3.5234442-1.8923035
		c-0.1058173-0.0569057-0.2315784-0.0645704-0.3444414-0.0208921c-1.4116359,0.5494833-5.5344224,2.4773893-5.9468946,4.0712786
		c-0.2945819,1.1381931-0.4118543,1.6961231-0.4168813,1.7192802c-0.0056453,0.0277729-0.0086533,0.0561237-0.0086533,0.0845146
		c0,0.55933,0.2810663,0.8239136,0.5166823,0.9472446c0.3470783,0.1814709,0.7631357,0.1663895,1.1918843,0.1579418
		c0.0919733-0.0016079,0.1861277-0.0034199,0.2806971-0.0034199h16.4824104c0.1237392,0,0.2464504,0.0044079,0.3649597,0.0086536
		c0.1207333,0.0042439,0.2376347,0.0082397,0.3484783,0.0082397c0.3155155,0,1.2758217,0,1.2758217-1.0637321
		C21.7848473,21.2222157,21.7450428,20.9814072,21.3794613,19.7781925z M20.5090256,21.8938332
		c-0.101572,0-0.2086258-0.0038319-0.3193054-0.0078297c-0.1281509-0.0044498-0.2605457-0.0090656-0.3941326-0.0090656H3.3131769
		c-0.0998027,0-0.1987796-0.001606-0.2959845,0.000206c-0.0880985,0.0016079-0.1746311-0.000206-0.2583206-0.000206
		c-0.0010302,0-0.0018132,0-0.0026371,0c-0.1134799,0-0.405591,0.0028019-0.533577-0.0639915
		c-0.0255477-0.0134754-0.0672069-0.0319767-0.0738411-0.1738071c0.0334182-0.152916,0.1555526-0.6981964,0.3985858-1.6371975
		c0.2406433-0.9303513,3.172328-2.5944977,5.2720652-3.4401264l3.5399666,1.9009571
		c0.1158714,0.0625496,0.2551088,0.0653534,0.3742332,0.0080357l3.9487734-1.9085808
		c2.3208475,1.0430069,4.6777086,2.6958618,4.9085035,3.4556198c0.3518982,1.1580944,0.3697815,1.3248959,0.3697815,1.6363735
		C20.9607258,21.8431492,20.9607258,21.8938332,20.5090256,21.8938332z"/>
	<path fill="#424242" d="M7.2283654,10.8821001c0.2223082,0.5554981,0.4758472,0.9536715,0.7424092,1.3725719
		c0.075242,0.1183033,0.151926,0.2386246,0.228776,0.3645916c0.2675915,0.4388027,0.5386038,0.7673798,0.8406029,1.01647
		c-0.0205212,0.406044-0.0709982,0.9052143-0.1621456,1.2760267C8.823658,15.1326656,8.9588947,15.3560028,9.1798,15.4103127
		c0.2205353,0.0543499,0.4442425-0.0806818,0.4985933-0.3017931c0.1231232-0.5009832,0.1808529-1.1858683,0.1937504-1.6596966
		c0.0038328-0.1390295-0.0627975-0.2706413-0.177062-0.3498802c-0.2810659-0.1947813-0.532588-0.4835119-0.7919388-0.9090462
		c-0.0798569-0.1307878-0.1591377-0.2551069-0.2370167-0.3776531c-0.2856817-0.4488573-0.532588-0.836606-0.7422032-1.4192591
		c-0.0545564-0.151721-0.2127051-0.2587738-0.3732438-0.2724543c-0.0398445-0.0032139-0.1490836-0.0681963-0.2074313-0.1746311
		C6.9271493,9.1825571,6.7490983,8.0161791,6.8269362,7.7781734C6.8374028,7.7713332,6.883883,7.7556338,6.9840961,7.7570348
		c0.1173139,0.0090652,0.2241197-0.0406289,0.3044305-0.1217227c0.0802693-0.0808873,0.1233296-0.1913605,0.1192927-0.305213
		c-0.087111-2.3639483,0.7830777-3.634701,1.5285363-4.2846022c0.1368036-0.1192913,0.1794538-0.3142784,0.1048279-0.4798441
		c-0.0048208-0.0110846-0.0104666-0.0219629-0.0163174-0.032388C9.3759823,2.2968245,9.9667139,2.3125241,9.9741306,2.314131
		l0.0227442-0.4114422l0.3394136-0.2333909c-0.0273609-0.0621799,0.0277729-0.2128704,0.1056528-0.3502924
		c0.2335968,0.1951518,0.5460615,0.335005,0.8384209,0.4160572c0.8462458,0.2344211,1.4605045,0.4760531,1.8413715,0.6436793
		c1.7564888,0.6959286,2.7121801,2.5011232,2.6214447,4.9525518c-0.0039968,0.1104736,0.0364265,0.2181034,0.1124926,0.2983727
		c0.07586,0.0802693,0.1808529,0.12675,0.2913265,0.1289749c0.076067,0.0016074,0.1146755,0.0168948,0.1124916,0.0092716
		c0.0885105,0.2512746-0.0897465,1.4196715-0.5056381,2.1824355c-0.0587597,0.1074247-0.1655664,0.1742191-0.2062368,0.1798649
		c-0.1504841,0.0209322-0.2774401,0.1229172-0.329977,0.2653666c-0.2128706,0.5760603-0.4720154,0.9818573-0.7464476,1.4116364
		c-0.0832777,0.1301699-0.1675844,0.2623587-0.2523041,0.4013872c-0.2498741,0.4104538-0.4770422,0.6871109-0.7150469,0.8710136
		c-0.1018219,0.0786619-0.1609936,0.2003841-0.1601696,0.3289471c0.0025959,0.3750572,0.0332127,1.1007776,0.2098627,1.7474651
		c0.050065,0.1830788,0.2160864,0.303606,0.3973494,0.303606c0.0360146,0,0.0724401-0.0048208,0.1088667-0.0147104
		c0.2195044-0.0601606,0.3488913-0.2867117,0.2889366-0.506216c-0.1283979-0.4694185-0.1664314-1.0130501-0.177063-1.344635
		c0.2575378-0.2347918,0.4997883-0.5440435,0.7508564-0.9565153c0.0817118-0.1340017,0.1629696-0.2611637,0.2432804-0.3868837
		c0.2575378-0.4032011,0.5231104-0.8188868,0.7512684-1.3796597c0.2265511-0.102191,0.432169-0.2913265,0.560154-0.5259123
		c0.479845-0.8800783,0.7569141-2.2927036,0.5595379-2.8514571c-0.0792809-0.2251086-0.2412624-0.3900976-0.4637737-0.4802566
		c-0.0040398-2.6105666-1.1645632-4.6151571-3.1333065-5.3948164c-0.3913336-0.172406-1.0454378-0.4301497-1.9391966-0.6778391
		c-0.3931456-0.1088663-0.5822411-0.2871236-0.6017733-0.3205005c-0.0181303-0.1102673-0.0800629-0.2086673-0.1720352-0.2722482
		c-0.0919304-0.0637869-0.2060299-0.0877276-0.3152666-0.0651879C10.0513906,0.3546197,9.7367411,0.8367302,9.612999,1.1431382
		C9.561698,1.270506,9.5292683,1.3948658,9.5160007,1.5139512C8.9703522,1.5906357,8.2070084,1.8532004,7.9953332,2.6225581
		c-0.0241466,0.069226-0.0316048,0.1442623-0.0197377,0.2161255C7.261538,3.6376274,6.5804834,4.9380069,6.5774751,6.991262
		C6.3275604,7.0753636,6.1467075,7.2469869,6.0611639,7.4908438c-0.1979537,0.557724,0.0787034,1.9691534,0.5587535,2.8498087
		C6.7571335,10.5915565,6.9826951,10.7873259,7.2283654,10.8821001z"/>
</g>
</svg>
