<svg viewBox="0 0 18 18" xmlns="http://www.w3.org/2000/svg">
<path fill-rule="evenodd" clip-rule="evenodd" d="M17.6806 6.90831C16.7027 2.8517 13.2122 0.0849118 8.9932 0.0369873C8.43762 0.0460439 7.85599 0.0917046 7.28078 0.212459C1.39507 1.40416 -1.65498 7.92831 1.21428 13.1959C1.28825 13.337 1.29391 13.4509 1.25315 13.5966C0.871566 14.9853 0.493754 16.374 0.113677 17.7577C0.0726628 17.9097 0.12802 17.9659 0.279749 17.9264C1.72004 17.5487 3.15769 17.1751 4.59684 16.7928C4.71611 16.7608 4.80972 16.7743 4.9188 16.8291C6.77238 17.7759 8.72484 18.054 10.7694 17.6577C15.6545 16.7106 18.8469 11.7434 17.681 6.90831H17.6806ZM10.2387 16.2325C9.83677 16.3008 9.43291 16.337 9.22004 16.3328C7.65482 16.3283 6.37833 15.9777 5.20451 15.2676C5.05429 15.1762 4.92332 15.1536 4.74782 15.1993C3.95898 15.4177 3.1641 15.6136 2.37413 15.8226C2.20806 15.8728 2.19221 15.8362 2.2341 15.686C2.44358 14.9351 2.6406 14.1883 2.85687 13.446C2.91688 13.2366 2.89575 13.0774 2.7761 12.8906C1.15275 10.2819 1.22107 7.03133 3.03804 4.61812C4.92559 2.10491 7.49177 1.07623 10.5622 1.7317C13.5881 2.36906 15.5168 4.32227 16.226 7.3317C17.1948 11.4476 14.4007 15.5404 10.2387 16.2325Z"/>
<path fill-rule="evenodd" clip-rule="evenodd" d="M11.3223 13.2053C11.0049 13.2189 10.7018 13.146 10.398 13.0641C8.35455 12.477 6.82103 11.1977 5.58908 9.5132C5.12333 8.88037 4.6923 8.22489 4.54887 7.43697C4.37676 6.4898 4.64889 5.68867 5.35356 5.03282C5.57776 4.82791 6.26092 4.73697 6.53418 4.86905C6.63571 4.91923 6.70025 5.01018 6.74252 5.10603C7.00069 5.72074 7.25583 6.32603 7.50872 6.94074C7.55665 7.05923 7.53589 7.17282 7.48267 7.29131C7.35284 7.57357 7.14449 7.80112 6.93275 8.02414C6.77234 8.18829 6.76517 8.33848 6.88368 8.53433C7.60534 9.73622 8.60403 10.6106 9.90995 11.134C10.1047 11.2113 10.2515 11.1841 10.381 11.0204C10.5984 10.7517 10.8283 10.483 11.0343 10.2053C11.1755 10.0094 11.337 9.98225 11.5363 10.0732C11.9677 10.269 12.3991 10.474 12.8309 10.6789C12.9275 10.72 13.0234 10.7702 13.1189 10.8155C13.556 11.034 13.5518 11.0385 13.5141 11.5211C13.4412 12.4634 12.7343 12.9283 11.8964 13.1604C11.7118 13.2102 11.5159 13.2151 11.3227 13.2057L11.3223 13.2053Z" />
</svg>
