<?xml version="1.0" encoding="utf-8"?>
<svg xmlns="http://www.w3.org/2000/svg" viewBox="0 0 56.42 60.18">
	<g id="Слой_2" data-name="Слой 2">
		<g id="Layer_1" data-name="Layer 1">
			<path class="cls-1" d="M14.21,24.58H13.13a3.68,3.68,0,0,1-3.67-3.67V11.82a3.67,3.67,0,0,1,3.67-3.67h.77a8.38,8.38,0,0,1,8.37,6.56,8.22,8.22,0,0,1-8.06,9.87ZM13.13,9.72a2.11,2.11,0,0,0-2.1,2.1v9.09a2.11,2.11,0,0,0,2.1,2.1h1.08a6.63,6.63,0,0,0,5.14-2.42A6.73,6.73,0,0,0,20.73,15a6.83,6.83,0,0,0-6.83-5.3Z" />
			<path class="cls-1" d="M43.29,24.58h-.76A8.4,8.4,0,0,1,34.15,18a8.22,8.22,0,0,1,8.06-9.86h1.08A3.67,3.67,0,0,1,47,11.82v9.09A3.68,3.68,0,0,1,43.29,24.58ZM42.21,9.72a6.6,6.6,0,0,0-5.13,2.42,6.74,6.74,0,0,0-1.39,5.57A6.84,6.84,0,0,0,42.53,23h.76a2.1,2.1,0,0,0,2.1-2.1V11.82a2.1,2.1,0,0,0-2.1-2.1Z" />
			<path class="cls-1" d="M39.38,32.05H17.05a4.42,4.42,0,0,1-4.42-4.41V23.8a.79.79,0,0,1,1.58,0v3.84a2.84,2.84,0,0,0,2.84,2.83H39.38a2.84,2.84,0,0,0,2.84-2.83V23.8a.79.79,0,1,1,1.57,0v3.84A4.42,4.42,0,0,1,39.38,32.05Z" />
			<path class="cls-1" d="M43,9.72a.78.78,0,0,1-.78-.79V4.41a2.85,2.85,0,0,0-2.84-2.84H17.05a2.84,2.84,0,0,0-2.84,2.84V8.93a.79.79,0,1,1-1.58,0V4.41A4.42,4.42,0,0,1,17.05,0H39.38a4.42,4.42,0,0,1,4.41,4.41V8.93A.79.79,0,0,1,43,9.72Z" />
			<path class="cls-1" d="M24.6,40.27a.78.78,0,0,1-.78-.78V31.26a.79.79,0,1,1,1.57,0v8.23A.78.78,0,0,1,24.6,40.27Z" />
			<path class="cls-1" d="M31.82,40.27a.78.78,0,0,1-.79-.78V31.26a.79.79,0,1,1,1.57,0v8.23A.78.78,0,0,1,31.82,40.27Z" />
			<path class="cls-1" d="M26.34,48.06a.78.78,0,0,1-.79-.78V34.58a.79.79,0,1,1,1.57,0v12.7A.78.78,0,0,1,26.34,48.06Z" />
			<path class="cls-1" d="M30.09,48.06a.78.78,0,0,1-.79-.78V34.58a.79.79,0,1,1,1.57,0v12.7A.78.78,0,0,1,30.09,48.06Z" />
			<path class="cls-1" d="M10.25,20.68a3.84,3.84,0,1,1,0-7.68.79.79,0,0,1,0,1.58,2.27,2.27,0,1,0,0,4.53.79.79,0,0,1,0,1.57Z" />
			<path class="cls-1" d="M24.6,39.78a2.6,2.6,0,0,1,0-5.19.79.79,0,1,1,0,1.57,1,1,0,0,0,0,2.05.79.79,0,1,1,0,1.57Z" />
			<path class="cls-1" d="M46.18,20.68a.79.79,0,1,1,0-1.57,2.27,2.27,0,0,0,0-4.53.79.79,0,1,1,0-1.58,3.84,3.84,0,1,1,0,7.68Z" />
			<path class="cls-1" d="M35.68,38H31.82a.79.79,0,1,1,0-1.57h3.86a.79.79,0,0,1,0,1.57Z" />
			<path class="cls-1" d="M55.64,60.18H.79A.79.79,0,0,1,0,59.39V57.54a4.75,4.75,0,0,1,4.75-4.75H51.67a4.75,4.75,0,0,1,4.75,4.75v1.85A.79.79,0,0,1,55.64,60.18ZM1.57,58.6H54.85V57.54a3.19,3.19,0,0,0-3.18-3.18H4.75a3.19,3.19,0,0,0-3.18,3.18Z" />
			<path class="cls-1" d="M49.47,54.36a.78.78,0,0,1-.52-.19C45.35,51.05,37.22,49,28.21,49s-17.14,2-20.74,5.14a.79.79,0,1,1-1-1.19c3.87-3.35,12.41-5.52,21.77-5.52S46.12,49.63,50,53a.79.79,0,0,1,.08,1.11A.78.78,0,0,1,49.47,54.36Z" />
			<path class="cls-1" d="M34.78,6.93H21.65a.79.79,0,1,1,0-1.57H34.78a.79.79,0,0,1,0,1.57Z" />
			<path class="cls-1" d="M34.78,26.65H21.65a.79.79,0,1,1,0-1.57H34.78a.79.79,0,0,1,0,1.57Z" />
		</g>
	</g>
</svg>