<?xml version="1.0" encoding="utf-8"?>
<svg xmlns="http://www.w3.org/2000/svg" viewBox="0 0 32.68 59.86">
	<g id="Слой_2" data-name="Слой 2">
		<g id="Layer_1" data-name="Layer 1">
			<path class="cls-1" d="M16.34,54.59a4.09,4.09,0,1,1,4.09-4.09A4.09,4.09,0,0,1,16.34,54.59Zm0-6.62a2.53,2.53,0,1,0,2.53,2.53A2.53,2.53,0,0,0,16.34,48Z" />
			<path class="cls-1" d="M27.32,59.86h-22A5.36,5.36,0,0,1,0,54.5V15.4a4.34,4.34,0,0,1,4.34-4.34h.48a6.25,6.25,0,0,0,6.24-6.24V4.34A4.34,4.34,0,0,1,15.4,0H27.32a5.36,5.36,0,0,1,5.36,5.36V54.5A5.36,5.36,0,0,1,27.32,59.86Zm-23-47.25A2.79,2.79,0,0,0,1.56,15.4V54.5a3.81,3.81,0,0,0,3.8,3.81h22a3.82,3.82,0,0,0,3.81-3.81V5.36a3.81,3.81,0,0,0-3.81-3.8H15.4a2.79,2.79,0,0,0-2.79,2.78v.48a7.79,7.79,0,0,1-7.79,7.79Z" />
			<path class="cls-1" d="M1.83,13.7a.78.78,0,0,1-.55-1.33L12.54,1.11a.78.78,0,0,1,1.1,0,.77.77,0,0,1,0,1.1L2.38,13.47A.78.78,0,0,1,1.83,13.7Z" />
		</g>
	</g>
</svg>