<?xml version="1.0" encoding="utf-8"?>
<svg xmlns="http://www.w3.org/2000/svg" viewBox="0 0 75.94 60.05">
	<g id="Слой_2" data-name="Слой 2">
		<g id="Layer_1" data-name="Layer 1">
			<g id="_Группа_" data-name="&lt;Группа&gt;">
				<path class="cls-1" d="M59.69,37.63a5.05,5.05,0,0,1-3.56-1.5l-8.24-8.25H28.05l-8.24,8.25a5.08,5.08,0,0,1-8.6-4.38l3.29-21A12.64,12.64,0,0,1,27.05,0H48.89A12.64,12.64,0,0,1,61.44,10.74l3.29,21A5,5,0,0,1,62,37.06,5.14,5.14,0,0,1,59.69,37.63ZM27.44,26.4H48.5l8.68,8.68A3.59,3.59,0,0,0,63.27,32L60,11A11.17,11.17,0,0,0,48.89,1.48H27.05A11.17,11.17,0,0,0,16,11L12.67,32a3.59,3.59,0,0,0,6.09,3.1Z" />
				<path class="cls-1" d="M16.25,37.63a5.14,5.14,0,0,1-2.33-.57,5,5,0,0,1-2.71-5.31l3.29-21A12.64,12.64,0,0,1,27.05,0H48.89A12.64,12.64,0,0,1,61.44,10.74l.15,1.08a11.21,11.21,0,0,1-.28,4.58,10.51,10.51,0,0,1-4.52,6,12.07,12.07,0,0,1-6.79,2H31.45l-3.18,3.28-8.46,8.46A5.05,5.05,0,0,1,16.25,37.63ZM27.05,1.48A11.17,11.17,0,0,0,16,11L12.67,32a3.59,3.59,0,0,0,6.09,3.1l8.46-8.46,3.6-3.7H50a10.63,10.63,0,0,0,6-1.77A9,9,0,0,0,59.89,16a9.64,9.64,0,0,0,.23-4L60,11A11.17,11.17,0,0,0,48.89,1.48Z" />
				<path class="cls-1" d="M29.05,17.29H23.73v-3h-3V9h3V6h5.32V9h3v5.33h-3ZM25.2,15.81h2.37v-3h3V10.46h-3v-3H25.2v3h-3v2.37h3Z" />
				<path class="cls-1" d="M45.09,13.07a1.43,1.43,0,1,1,1.42-1.43A1.43,1.43,0,0,1,45.09,13.07ZM45,11.64a0,0,0,0,0,.05,0Z" />
				<path class="cls-1" d="M52.47,13.07a1.43,1.43,0,1,1,1.43-1.43A1.43,1.43,0,0,1,52.47,13.07Zm0-1.43a0,0,0,0,0,0,0Z" />
				<path class="cls-1" d="M48.78,9.06a1.43,1.43,0,1,1,1.43-1.43A1.43,1.43,0,0,1,48.78,9.06Zm-.05-1.43a0,0,0,0,0,.05,0Z" />
				<path class="cls-1" d="M48.78,17.09a1.43,1.43,0,1,1,1.43-1.43A1.43,1.43,0,0,1,48.78,17.09Zm0-1.48,0,.05A.05.05,0,0,0,48.78,15.61Z" />
			</g>
			<g id="_Группа_2" data-name="&lt;Группа&gt;">
				<path class="cls-1" d="M75.94,60.05H0l4.32-14a3.12,3.12,0,0,1,3-2.21H68.63a3.12,3.12,0,0,1,3,2.21ZM2,58.58H73.94L70.21,46.51a1.64,1.64,0,0,0-1.58-1.17H7.31a1.64,1.64,0,0,0-1.58,1.17Z" />
				<rect class="cls-1" x="3.27" y="51.22" width="28.39" height="1.48" />
				<rect class="cls-1" x="30.93" y="44.6" width="1.48" height="14.71" />
				<rect class="cls-1" x="37.4" y="51.22" width="1.7" height="1.48" />
				<rect class="cls-1" x="41.27" y="51.22" width="1.71" height="1.48" />
				<rect class="cls-1" x="45.14" y="51.22" width="1.71" height="1.48" />
			</g>
		</g>
	</g>
</svg>