<?xml version="1.0" encoding="utf-8"?>
<svg xmlns="http://www.w3.org/2000/svg" viewBox="0 0 58.88 59.69">
	<g id="Слой_2" data-name="Слой 2">
		<g id="Layer_1" data-name="Layer 1">
			<path class="cls-1" d="M34.19,35.53H8.4A8.41,8.41,0,0,1,0,27.12V1.63A.76.76,0,0,1,.76.87H41.84a.76.76,0,0,1,.76.76V27.12A8.42,8.42,0,0,1,34.19,35.53ZM1.52,2.39V27.12A6.89,6.89,0,0,0,8.4,34H34.19a6.89,6.89,0,0,0,6.88-6.89V2.39Z" />
			<path class="cls-1" d="M35,42.6H7.65a.77.77,0,0,1-.77-.76V34.77a.77.77,0,0,1,1.53,0v6.31H34.19V34.77a.76.76,0,0,1,1.52,0v7.07A.76.76,0,0,1,35,42.6Z" />
			<path class="cls-1" d="M14.35,59.69a3,3,0,0,1-3-3V41.84a.76.76,0,0,1,1.52,0V56.66a1.52,1.52,0,0,0,3,0V41.84a.76.76,0,0,1,1.52,0V56.66A3,3,0,0,1,14.35,59.69Z" />
			<path class="cls-1" d="M16.63,51.15H12.08a.76.76,0,0,1-.76-.76.77.77,0,0,1,.76-.77h4.55a.77.77,0,0,1,.76.77A.76.76,0,0,1,16.63,51.15Z" />
			<path class="cls-1" d="M28.71,59.69a3,3,0,0,1-3-3V41.84a.76.76,0,1,1,1.52,0V56.66a1.52,1.52,0,0,0,3,0V41.84a.76.76,0,0,1,1.52,0V56.66A3,3,0,0,1,28.71,59.69Z" />
			<path class="cls-1" d="M31,51.15H26.43a.76.76,0,0,1-.76-.76.77.77,0,0,1,.76-.77H31a.77.77,0,0,1,.76.77A.76.76,0,0,1,31,51.15Z" />
			<path class="cls-1" d="M58.12,29.77H47.68a.76.76,0,0,1-.76-.76V8.56a.77.77,0,0,1,.76-.76H58.12a.77.77,0,0,1,.76.76V29A.76.76,0,0,1,58.12,29.77Zm-9.68-1.52h8.92V9.33H48.44Z" />
			<path class="cls-1" d="M56.47,9.33a.77.77,0,0,1-.76-.77v-7H50.09v7a.76.76,0,1,1-1.52,0V.76A.76.76,0,0,1,49.33,0h7.14a.76.76,0,0,1,.76.76v7.8A.77.77,0,0,1,56.47,9.33Z" />
			<path class="cls-1" d="M52.9,8.67a.76.76,0,0,1-.76-.76V.76a.76.76,0,0,1,1.52,0V7.91A.76.76,0,0,1,52.9,8.67Z" />
			<path class="cls-1" d="M44.05,59.23a.76.76,0,0,1,0-1.52,8.1,8.1,0,0,0,8.09-8.09V29a.76.76,0,1,1,1.52,0V49.62A9.62,9.62,0,0,1,44.05,59.23Z" />
		</g>
	</g>
</svg>