<?xml version="1.0" encoding="utf-8"?>
<svg xmlns="http://www.w3.org/2000/svg" viewBox="0 0 53.84 60.39">
	<g id="Слой_2" data-name="Слой 2">
		<g id="Layer_1" data-name="Layer 1">
			<path class="cls-1" d="M16.92,52.63h-.21a3.9,3.9,0,0,1-3.89-3.89V42.32a.59.59,0,0,1,.59-.59h6.81a.59.59,0,0,1,.58.59v6.42A3.89,3.89,0,0,1,16.92,52.63ZM14,42.91v5.83a2.71,2.71,0,0,0,2.71,2.71h.21a2.71,2.71,0,0,0,2.71-2.71V42.91Z" />
			<path class="cls-1" d="M20.22,44.67a.59.59,0,0,1-.59-.57.58.58,0,0,1,.57-.6c7.26-.17,11.48-.86,12.63-1.38-1.38-.64-7-1.4-15.72-1.4s-14.34.76-15.71,1.4c1.11.5,5.13,1.17,12,1.36a.59.59,0,0,1,.57.6.62.62,0,0,1-.61.57C4.51,44.41,0,43.56,0,42.12c0-2.39,13.1-2.58,17.11-2.58s17.11.19,17.11,2.58c0,1.84-7.61,2.4-14,2.55Z" />
			<path class="cls-1" d="M33.63,42.71a.58.58,0,0,1-.58-.59V2.71c-.84-.66-6.68-1.54-15.94-1.54S2,2.05,1.17,2.71V42.12a.59.59,0,1,1-1.17,0V2.58C0,.19,13.1,0,17.11,0S34.22.19,34.22,2.58V42.12A.58.58,0,0,1,33.63,42.71Z" />
			<path class="cls-1" d="M19.6,34.64a.59.59,0,0,1-.42-.18.59.59,0,0,1,0-.83,2.92,2.92,0,0,0,0-4.14,3,3,0,0,0-4.14,0,2.92,2.92,0,0,0,0,4.14.59.59,0,0,1-.83.83,4.1,4.1,0,1,1,5.8,0A.55.55,0,0,1,19.6,34.64Z" />
			<path class="cls-1" d="M17.11,36.66a.59.59,0,0,1-.59-.59V31.38a.59.59,0,0,1,1.18,0v4.69A.59.59,0,0,1,17.11,36.66Z" />
			<path class="cls-1" d="M13.59,5.65a.54.54,0,0,1-.22-.05.5.5,0,0,1-.19-.13A.54.54,0,0,1,13,5.06a.6.6,0,0,1,.18-.42.52.52,0,0,1,.19-.12.58.58,0,0,1,.45,0,.76.76,0,0,1,.19.12.63.63,0,0,1,.17.42.57.57,0,0,1-.17.41.59.59,0,0,1-.19.13A.64.64,0,0,1,13.59,5.65Z" />
			<path class="cls-1" d="M17.11,5.65a.56.56,0,0,1-.42-.18.64.64,0,0,1-.13-.19.54.54,0,0,1,0-.22.59.59,0,0,1,1-.42.59.59,0,0,1,.17.42.54.54,0,0,1,0,.22.43.43,0,0,1-.13.19A.55.55,0,0,1,17.11,5.65Z" />
			<path class="cls-1" d="M20.62,5.65a.58.58,0,0,1-.41-.17.6.6,0,0,1,0-.84.62.62,0,0,1,.19-.12.6.6,0,0,1,.64.12.59.59,0,0,1,.17.42.61.61,0,0,1-.17.42A.59.59,0,0,1,20.62,5.65Z" />
			<path class="cls-1" d="M51.06,21.94h-3a2.77,2.77,0,0,1-2.78-2.78V6.86a.58.58,0,0,1,.58-.58h7.4a.58.58,0,0,1,.59.58v12.3A2.78,2.78,0,0,1,51.06,21.94ZM46.44,7.45V19.16a1.61,1.61,0,0,0,1.61,1.61h3a1.61,1.61,0,0,0,1.61-1.61V7.45Z" />
			<path class="cls-1" d="M52.09,7.45a.58.58,0,0,1-.59-.59V1.92H47.61V6.86a.59.59,0,1,1-1.17,0V1.33A.58.58,0,0,1,47,.75h5.07a.58.58,0,0,1,.58.58V6.86A.58.58,0,0,1,52.09,7.45Z" />
			<path class="cls-1" d="M49.55,7A.58.58,0,0,1,49,6.4V1.33a.59.59,0,0,1,1.17,0V6.4A.58.58,0,0,1,49.55,7Z" />
			<path class="cls-1" d="M43.69,60.39h-21a6.48,6.48,0,0,1-6.48-6.48V52a.59.59,0,1,1,1.17,0v1.87a5.32,5.32,0,0,0,5.31,5.31h21A5.29,5.29,0,0,0,49,53.94V21.35a.59.59,0,0,1,1.17,0V53.94A6.45,6.45,0,0,1,43.69,60.39Z" />
		</g>
	</g>
</svg>