<?xml version="1.0" encoding="utf-8"?>
<svg xmlns="http://www.w3.org/2000/svg" viewBox="0 0 76.01 59.73">
	<g id="Слой_2" data-name="Слой 2">
		<g id="Layer_1" data-name="Layer 1">
			<path class="cls-1" d="M62,26.73H52.91a.84.84,0,0,1-.84-.84V8a.85.85,0,0,1,.84-.84H62a.84.84,0,0,1,.84.84V25.89A.83.83,0,0,1,62,26.73Zm-8.29-1.68h7.46V8.85H53.75Z" />
			<path class="cls-1" d="M60.6,8.85A.85.85,0,0,1,59.76,8V2H55.19V8a.84.84,0,0,1-1.68,0V1.19a.84.84,0,0,1,.84-.84H60.6a.84.84,0,0,1,.84.84V8A.85.85,0,0,1,60.6,8.85Z" />
			<path class="cls-1" d="M57.48,8.27a.83.83,0,0,1-.84-.84V1.19a.84.84,0,1,1,1.68,0V7.43A.84.84,0,0,1,57.48,8.27Z" />
			<path class="cls-1" d="M50.24,48.65H.84A.84.84,0,0,1,.84,47h49.4a6.06,6.06,0,0,0,6.4-6.4V25.89a.84.84,0,0,1,1.68,0V40.57A7.73,7.73,0,0,1,50.24,48.65Z" />
			<path class="cls-1" d="M45.51,27.27H.84A.85.85,0,0,1,0,26.43V7a.85.85,0,0,1,.84-.84H45.51a.84.84,0,0,1,.84.84V26.43A.84.84,0,0,1,45.51,27.27ZM1.68,25.59h43V7.79h-43Z" />
			<path class="cls-1" d="M23.18,31.09a3.64,3.64,0,0,1-3.65-3.65.84.84,0,0,1,1.68,0,2,2,0,1,0,3.94,0,.84.84,0,0,1,1.67,0A3.64,3.64,0,0,1,23.18,31.09Z" />
			<path class="cls-1" d="M23.18,59.73a.83.83,0,0,1-.84-.83V30.25a.84.84,0,0,1,1.67,0V58.9A.83.83,0,0,1,23.18,59.73Z" />
			<path class="cls-1" d="M41.7,7.79A.83.83,0,0,1,40.86,7V2H5.44V7A.84.84,0,0,1,3.76,7V1.19A.84.84,0,0,1,4.6.35H41.7a.83.83,0,0,1,.83.84V7A.83.83,0,0,1,41.7,7.79Z" />
			<path class="cls-1" d="M10.44,7.79A.84.84,0,0,1,9.6,7V3.69a.84.84,0,1,1,1.68,0V7A.83.83,0,0,1,10.44,7.79Z" />
			<path class="cls-1" d="M13.62,7.79A.84.84,0,0,1,12.78,7V3.69a.84.84,0,1,1,1.68,0V7A.84.84,0,0,1,13.62,7.79Z" />
			<path class="cls-1" d="M16.8,7.79A.83.83,0,0,1,16,7V3.69a.84.84,0,1,1,1.67,0V7A.83.83,0,0,1,16.8,7.79Z" />
			<path class="cls-1" d="M20,7.79A.84.84,0,0,1,19.13,7V3.69a.84.84,0,0,1,1.68,0V7A.83.83,0,0,1,20,7.79Z" />
			<path class="cls-1" d="M23.15,7.79A.84.84,0,0,1,22.31,7V3.69a.84.84,0,0,1,1.68,0V7A.84.84,0,0,1,23.15,7.79Z" />
			<path class="cls-1" d="M26.33,7.79A.83.83,0,0,1,25.49,7V3.69a.84.84,0,1,1,1.67,0V7A.83.83,0,0,1,26.33,7.79Z" />
			<path class="cls-1" d="M29.5,7.79A.84.84,0,0,1,28.66,7V3.69a.84.84,0,0,1,1.68,0V7A.83.83,0,0,1,29.5,7.79Z" />
			<path class="cls-1" d="M32.68,7.79A.83.83,0,0,1,31.84,7V3.69a.84.84,0,1,1,1.68,0V7A.84.84,0,0,1,32.68,7.79Z" />
			<path class="cls-1" d="M35.85,7.79A.83.83,0,0,1,35,7V3.69a.84.84,0,1,1,1.67,0V7A.83.83,0,0,1,35.85,7.79Z" />
			<path class="cls-1" d="M35.85,22.46H10.44a.84.84,0,0,1,0-1.68H35.85a.84.84,0,1,1,0,1.68Z" />
			<path class="cls-1" d="M75.18,29.28H67.31a.85.85,0,0,1-.84-.84V13.36a.84.84,0,0,1,.84-.83h7.87a.83.83,0,0,1,.83.83V28.44A.84.84,0,0,1,75.18,29.28Zm-7-1.68h6.19V14.2H68.15Z" />
			<path class="cls-1" d="M74.55,32H67.94a.84.84,0,0,1,0-1.68h6.61a.84.84,0,1,1,0,1.68Z" />
			<path class="cls-1" d="M73.84,34.75H68.65a.84.84,0,0,1,0-1.68h5.19a.84.84,0,0,1,0,1.68Z" />
			<path class="cls-1" d="M73.14,37.55H69.35a.84.84,0,0,1,0-1.68h3.79a.84.84,0,1,1,0,1.68Z" />
			<path class="cls-1" d="M72.43,40.34H70.06a.84.84,0,1,1,0-1.67h2.37a.84.84,0,1,1,0,1.67Z" />
			<path class="cls-1" d="M73.23,14.2a.83.83,0,0,1-.84-.84V6.22H70.1v7.14a.84.84,0,1,1-1.68,0v-8a.84.84,0,0,1,.84-.84h4a.84.84,0,0,1,.84.84v8A.84.84,0,0,1,73.23,14.2Z" />
			<path class="cls-1" d="M71.24,6.22a.84.84,0,0,1-.84-.83V.84a.84.84,0,0,1,1.68,0V5.39A.83.83,0,0,1,71.24,6.22Z" />
			<path class="cls-1" d="M71.24,59.73a.84.84,0,0,1-.84-.83V39.5a.84.84,0,0,1,1.68,0V58.9A.83.83,0,0,1,71.24,59.73Z" />
		</g>
	</g>
</svg>