<svg width="27" height="20" viewBox="0 0 27 20" fill="none" xmlns="http://www.w3.org/2000/svg">
<path d="M14.1 14.6C14.1 8.9 19 2.8 24.3 0L26.7 2.6C23.1 4.5 19.8 7.9 18.9 11C19 11 19.4 11 19.6 11C21.5 11 23.1 12.6 23.1 14.7C23.1 17.3 20.8 19.4 18.3 19.4C15.9 19.4 14.1 17.8 14.1 14.6ZM0 14.6C0 8.9 4.9 2.8 10.2 0L12.7 2.6C9 4.5 5.8 7.9 4.9 11C4.9 11 5.4 11 5.6 11C7.4 11 9 12.6 9 14.7C9 17.3 6.7 19.4 4.2 19.4C1.9 19.4 0 17.8 0 14.6Z" fill="url(#paint0_linear_33_86)" fill-opacity="0.38"/>
<defs>
<linearGradient id="paint0_linear_33_86" x1="-0.5" y1="22" x2="15.5" y2="14.5" gradientUnits="userSpaceOnUse">
<stop stop-color="#02BA20"/>
<stop offset="1" stop-color="#05A8C1"/>
</linearGradient>
</defs>
</svg>
