<?xml version="1.0" encoding="utf-8"?>
<!-- Generator: Adobe Illustrator 23.0.1, SVG Export Plug-In . SVG Version: 6.00 Build 0)  -->
<svg version="1.2" baseProfile="tiny" id="Layer_1" xmlns="http://www.w3.org/2000/svg" xmlns:xlink="http://www.w3.org/1999/xlink"
	 x="0px" y="0px" viewBox="0 0 198.4252014 221.102356" xml:space="preserve">
<g>
	<g>
		<path fill="#3A3A39" d="M87.5129471,109.6166992l-6.4967041-17.904541h-45.3167l-6.6546803,17.904541H3.3759339
			L44.2560692,3.9307222h28.203968l40.7218399,105.6859741H87.5129471z M58.3578949,26.4304504L41.8793297,71.9054489h32.9574471
			L58.3578949,26.4304504z"/>
		<path fill="#3A3A39" d="M107.1584625,109.6166992V3.9307222h55.615799c20.1233063,0,30.4224091,12.8344641,30.4224091,26.9366112
			c0,13.3093643-8.2392883,22.1824875-18.2214661,24.2423058c11.2498627,1.7432213,20.2816162,12.6761665,20.2816162,25.9861717
			c0,15.8447266-10.6163483,28.5208893-30.7393341,28.5208893H107.1584625z M170.2217255,34.8280296
			c0-6.6543579-4.7537994-11.566782-12.3592529-11.566782h-28.2039642V46.236515h28.2039642
			C165.467926,46.236515,170.2217255,41.483036,170.2217255,34.8280296z M172.2815399,77.9266052
			c0-6.6549988-4.753479-12.3589172-13.6269226-12.3589172h-28.996109v24.5595474h28.996109
			C167.2111511,90.1272354,172.2815399,85.5320511,172.2815399,77.9266052z"/>
	</g>
	<g>
		<g>
			<path fill="#3A3A39" d="M19.7995396,216.5305786v-2.3141022c-1.799202,1.7992096-3.4960098,2.5715485-6.5824432,2.5715485
				c-3.0337753,0-5.2454762-0.7723389-6.83989-2.3667603c-1.4393611-1.4920197-2.2102385-3.651062-2.2102385-6.017807
				c0-4.2683563,2.9313817-7.7643585,9.1525211-7.7643585h6.3264589v-1.3369751c0-2.9313812-1.4408226-4.215683-4.9894915-4.215683
				c-2.5700779,0-3.7534552,0.6172791-5.1416197,2.2117004l-4.2683487-4.1659546
				c2.6227379-2.8816528,5.1942797-3.7037201,9.6674147-3.7037201c7.5083742,0,11.4168825,3.1888275,11.4168825,9.4611664
				v17.6409454H19.7995396z M19.6459484,205.2175446h-5.2966719c-2.4179506,0-3.7549181,1.1292572-3.7549181,3.033783
				c0,1.848938,1.2345734,3.0835114,3.8573112,3.0835114c1.85186,0,3.0337753-0.1521301,4.2171516-1.284317
				c0.7196808-0.6699371,0.9771271-1.7494659,0.9771271-3.3936157V205.2175446z"/>
			<path fill="#3A3A39" d="M47.4618912,216.8377533c-4.2171516,0-8.0218048-0.4622345-11.4168816-3.8558502l4.3722038-4.3707428
				c2.2102394,2.2117004,5.0904236,2.5188904,7.1470718,2.5188904c2.3140945,0,4.7320442-0.7723389,4.7320442-2.7763367
				c0-1.3369598-0.7196808-2.2643585-2.8289871-2.4691467l-4.2171516-0.4124908
				c-4.8329773-0.4622345-7.8155556-2.5686188-7.8155556-7.5069122c0-5.5526581,4.8856354-8.5366974,10.3358994-8.5366974
				c4.1659546,0,7.6619644,0.7196808,10.2335052,3.1361694l-4.1132965,4.1659546
				c-1.5432167-1.3867035-3.9085083-1.7992096-6.2226028-1.7992096c-2.6739349,0-3.8061142,1.2345734-3.8061142,2.5715485
				c0,0.9771271,0.4110374,2.1092987,2.7777901,2.3140869l4.2156906,0.4095764
				c5.2981339,0.5148926,7.9720688,3.3438873,7.9720688,7.8696747
				C58.8275757,214.0087738,53.7868881,216.8377533,47.4618912,216.8377533z"/>
			<path fill="#3A3A39" d="M77.4398041,216.5305786c-5.4517288,0-7.7658234-3.8587799-7.7658234-7.661972v-13.2702026h-2.8275223
				v-5.0904236h2.8275223v-7.9194031h6.6863022v7.9194031h4.7305832v5.0904236h-4.7305832v12.8577118
				c0,1.541748,0.7196808,2.4164886,2.3140945,2.4164886h2.4164886v5.6579742H77.4398041z"/>
			<path fill="#3A3A39" d="M105.8744888,216.5305786v-2.3141022c-1.7991943,1.7992096-3.4960022,2.5715485-6.5824432,2.5715485
				c-3.0337677,0-5.2454758-0.7723389-6.8398895-2.3667603c-1.4393539-1.4920197-2.2102356-3.651062-2.2102356-6.017807
				c0-4.2683563,2.9313812-7.7643585,9.1525192-7.7643585h6.3264618v-1.3369751c0-2.9313812-1.4408264-4.215683-4.9894943-4.215683
				c-2.570076,0-3.7534561,0.6172791-5.1416168,2.2117004l-4.2683487-4.1659546
				c2.6227417-2.8816528,5.1942825-3.7037201,9.6674118-3.7037201c7.5083771,0,11.4168854,3.1888275,11.4168854,9.4611664
				v17.6409454H105.8744888z M105.7209015,205.2175446h-5.296669c-2.4179535,0-3.754921,1.1292572-3.754921,3.033783
				c0,1.848938,1.2345734,3.0835114,3.8573151,3.0835114c1.85186,0,3.0337677-0.1521301,4.2171478-1.284317
				c0.7196808-0.6699371,0.9771271-1.7494659,0.9771271-3.3936157V205.2175446z"/>
			<path fill="#3A3A39" d="M142.0223389,214.6787109c-1.2857666,1.284317-3.4462738,2.1590424-6.0690002,2.1590424
				c-2.8275299,0-5.1416321-0.6172791-7.3533325-3.4960022v3.1888275h-2.6227341v-36.6159363h2.6227341v15.0167389
				c2.2117004-2.8787231,4.5258026-3.4960022,7.3533325-3.4960022c2.6227264,0,4.7832336,0.8718109,6.0690002,2.1590424
				c2.5203552,2.5188751,3.1888275,6.6321716,3.1888275,10.5406799S144.5426941,212.1598358,142.0223389,214.6787109z
				 M135.5934906,193.7494659c-6.0675507,0-6.9934845,5.2454834-6.9934845,10.3856354
				c0,5.1430817,0.9259338,10.3885651,6.9934845,10.3885651c6.0690155,0,6.9949493-5.2454834,6.9949493-10.3885651
				C142.5884399,198.9949493,141.6625061,193.7494659,135.5934906,193.7494659z"/>
			<path fill="#3A3A39" d="M171.763855,214.11409c-1.7991943,1.7991943-4.062088,2.7236633-6.8910828,2.7236633
				c-2.7763214,0-5.0904236-0.924469-6.8910828-2.7236633c-2.6227417-2.6242065-3.0849762-6.4303131-3.0849762-9.9789886
				c0-3.5457458,0.4622345-7.3518524,3.0849762-9.976059c1.8006592-1.7991943,4.1147614-2.7236633,6.8910828-2.7236633
				c2.8289948,0,5.0918884,0.924469,6.8910828,2.7236633c2.6227417,2.6242065,3.0849762,6.4303131,3.0849762,9.976059
				C174.8488312,207.6837769,174.3865967,211.4898834,171.763855,214.11409z M170.0158539,195.8558502
				c-1.3881531-1.3867035-3.1376343-2.1063843-5.1430817-2.1063843s-3.7534485,0.7196808-5.1430817,2.1063843
				c-2.0566406,2.0566559-2.2102356,5.400528-2.2102356,8.2792511c0,2.8816528,0.153595,6.2226105,2.2102356,8.2821808
				c1.3896332,1.3867035,3.1376343,2.1063843,5.1430817,2.1063843s3.7549286-0.7196808,5.1430817-2.1063843
				c2.0566559-2.0595703,2.2102356-5.400528,2.2102356-8.2821808
				C172.2260895,201.2563782,172.0725098,197.9125061,170.0158539,195.8558502z"/>
			<path fill="#3A3A39" d="M186.5939484,210.0505219v-16.353714h-3.3936157v-1.9542542h3.3936157v-7.9194031h2.6227417v7.9194031
				h5.6053162v1.9542542h-5.6053162v16.4034576c0,2.6241913,1.1833801,4.1162109,3.8061066,4.1162109h1.7992096v2.3141022
				h-2.2628937C188.6506042,216.5305786,186.5939484,213.8039856,186.5939484,210.0505219z"/>
		</g>
		<rect x="4.1669679" y="141.1354523" fill="#FDC300" width="190.6550446" height="13.9294138"/>
	</g>
</g>
<rect x="13.4664974" y="109.6166992" fill="#FFFFFF" width="89.7378082" height="31.5187588"/>
</svg>
