<?xml version="1.0" encoding="UTF-8"?><!DOCTYPE svg PUBLIC "-//W3C//DTD SVG 1.1//EN" "http://www.w3.org/Graphics/SVG/1.1/DTD/svg11.dtd"><svg xmlns="http://www.w3.org/2000/svg" xmlns:xlink="http://www.w3.org/1999/xlink"><defs><clipPath id="clip-path"><path d="M0 0h52v54H0z"/></clipPath><style>.cls-3{fill:#fff}</style><clipPath id="clip-path"><path d="M0 0h52v54H0z"/></clipPath><style>.cls-3{fill:#424242}</style><style>.cls-1{fill:#735fb4}</style><style>.cls-1{fill:#b7b7b7}</style><style>.cls-1{fill:#858685}</style><style>.cls-1{fill:#cf4252}</style><style>.cls-1{fill:#424242}</style><clipPath id="clip-path"><path d="M0 0h54.01v52.84H0z"/></clipPath><style>.cls-3{fill:#424242}</style><clipPath id="clip-path"><path d="M0 0h54v54H0z"/></clipPath><style>.cls-3{fill:#f7f7f7}</style><clipPath id="clip-path"><path d="M0 0h54v54H0z"/></clipPath><style>.cls-3{fill:#fff}</style></defs><symbol id="arrow-bottom" viewBox="0 0 12 7"><g><path d="M6 7a1 1 0 01-.71-.29l-5-5A1 1 0 011.71.29L6 4.59l4.29-4.3a1 1 0 111.42 1.42l-5 5A1 1 0 016 7z"/></g></symbol><symbol id="busket" viewBox="0 0 23 23"><g><path d="M7.886 15.276c.035-.003.065-.018.096-.03.09.02.182.033.275.033h9.919c.62 0 1.287-.452 1.517-1.028l2.693-6.73c.132-.331.107-.67-.068-.928-.175-.259-.48-.407-.836-.407H6.19c-.345 0-.655.144-.85.394-.196.25-.26.587-.177.921l1.666 6.662c.051.207.158.395.296.56-.318.21-.676.581-.911 1.244-.109.307-.124.777.159 1.177.198.28.614.614 1.47.614H19.83a.413.413 0 100-.826H7.843c-.277 0-.64-.046-.796-.265a.497.497 0 01-.054-.424c.307-.868.855-.961.893-.967zM5.965 7.301c-.022-.087-.013-.163.026-.212.039-.05.11-.077.2-.077h15.291c.084 0 .137.023.152.044.014.022.015.08-.016.157l-2.692 6.731c-.107.266-.464.508-.75.508h-9.92c-.263 0-.561-.233-.625-.489L5.965 7.301zM5.45 4.981l-.822-2.72C4.234.711 3.095.37 2.574.4H.817a.413.413 0 100 .826h1.777c.094 0 .919.003 1.237 1.256l.827 2.738a.413.413 0 00.791-.239zM7.843 18.585c-1.139 0-2.066.927-2.066 2.066 0 1.14.927 2.067 2.066 2.067s2.067-.927 2.067-2.067c0-1.139-.927-2.066-2.067-2.066zm0 3.306c-.683 0-1.24-.556-1.24-1.24 0-.683.557-1.24 1.24-1.24s1.24.557 1.24 1.24c0 .684-.556 1.24-1.24 1.24zM17.763 18.585c-1.14 0-2.067.927-2.067 2.066 0 1.14.927 2.067 2.067 2.067 1.139 0 2.066-.927 2.066-2.067 0-1.139-.927-2.066-2.066-2.066zm0 3.306c-.684 0-1.24-.556-1.24-1.24a1.241 1.241 0 111.24 1.24z"/></g></symbol><symbol id="covers" viewBox="0 0 36.69 60.01"><path class="cls-1" d="M36 36.22h-8.58a2.58 2.58 0 01-2.35-1.51L24 32.33a3 3 0 010-2.54l1.1-2.38a2.58 2.58 0 012.35-1.51H36a.73.73 0 01.73.73v8.86a.73.73 0 01-.73.73zm-8.54-8.87a1.14 1.14 0 00-1 .66l-1.1 2.39a1.6 1.6 0 000 1.32l1.1 2.39a1.14 1.14 0 001 .66h7.82v-7.42z"/><path class="cls-1" d="M30.11 60H3.82a.73.73 0 01-.73-.72V3.82a.73.73 0 01.73-.73h5.66a2.14 2.14 0 012.14 2.14.68.68 0 00.68.69h11.57a.68.68 0 00.68-.69 2.14 2.14 0 012.14-2.14h3.42a4.22 4.22 0 014.21 4.21v19.33a.73.73 0 01-1.45 0V7.3a2.77 2.77 0 00-2.76-2.76h-3.42a.68.68 0 00-.68.69 2.14 2.14 0 01-2.14 2.14H12.3a2.14 2.14 0 01-2.14-2.14.68.68 0 00-.68-.69H4.54v54h25.57a2.76 2.76 0 002.76-2.76V35.49a.73.73 0 011.45 0V55.8a4.21 4.21 0 01-4.21 4.2z"/><path class="cls-1" d="M30.69 4.6a.73.73 0 01-.69-.66 2.75 2.75 0 00-2.74-2.49H.85A.72.72 0 01.12.73.73.73 0 01.85 0h26.38a4.19 4.19 0 014.19 3.8.73.73 0 01-.66.79z"/><path class="cls-1" d="M3.82 60a.71.71 0 01-.51-.21l-3.1-3.08A.75.75 0 010 56.2V.73A.72.72 0 01.45.06a.71.71 0 01.79.15l3.09 3.1a.72.72 0 11-1 1L1.45 2.48V55.9l2.88 2.87a.72.72 0 010 1 .73.73 0 01-.51.23z"/></symbol><symbol id="delivery" viewBox="0 0 52 54"><g id="&#x421;&#x43B;&#x43E;&#x439;_2"><g clip-path="url(#clip-path)" id="&#x421;&#x43B;&#x43E;&#x439;_1-2"><path class="cls-3" d="M51 9.75a1 1 0 00-.18-.36L45 2a5.59 5.59 0 00-4-2H11a5.59 5.59 0 00-4 2L1.21 9.39a1 1 0 00-.21.36A3 3 0 000 12v39a3 3 0 003 3h46a3 3 0 003-3V12a3 3 0 00-1-2.25M41 2a3.7 3.7 0 012.44 1.19L48 9H31V2zM29 2v18a1 1 0 01-1 1h-4a1 1 0 01-1-1V2zM8.56 3.19A3.7 3.7 0 0111 2h10v7H4zM50 51a1 1 0 01-1 1H3a1 1 0 01-1-1V12a1 1 0 011-1h18v9a3 3 0 003 3h4a3 3 0 003-3v-9h18a1 1 0 011 1z"/><path class="cls-3" d="M44 46H25a1 1 0 000 2h19a1 1 0 000-2M40.71 30.29a1 1 0 00-1.42 0l-4 4a1 1 0 001.42 1.42l2.29-2.3V42a1 1 0 002 0v-8.59l2.29 2.3a1 1 0 001.42 0 1 1 0 000-1.42zM25.71 35.71l2.29-2.3V42a1 1 0 002 0v-8.59l2.29 2.3a1 1 0 001.42 0 1 1 0 000-1.42l-4-4a1 1 0 00-1.42 0l-4 4a1 1 0 001.42 1.42"/></g></g></symbol><symbol id="dollar" viewBox="0 0 8.65 15.62"><g><g><path d="M4.87 15.62V14a4.1 4.1 0 002.88-1.11 3.3 3.3 0 00.9-2.27 3.23 3.23 0 00-.3-1.43 2.53 2.53 0 00-.92-1 7.17 7.17 0 00-1.16-.62 11.46 11.46 0 00-1.4-.46V2.59A4.14 4.14 0 017.7 4.07l.68-.76a5.09 5.09 0 00-3.51-1.67V0h-.82v1.64a4.27 4.27 0 00-2.63.94 3 3 0 00-.76 3.55 2.41 2.41 0 00.9.92 7.17 7.17 0 001.11.55q.5.2 1.38.45v5a4.77 4.77 0 01-3.39-1.69l-.66.77A5.28 5.28 0 004.05 14v1.6zm2.07-3.34a3 3 0 01-2.07.81V8.28a6.44 6.44 0 012 .92 1.77 1.77 0 01.69 1.51 2.31 2.31 0 01-.63 1.57zm-4.76-9a3.09 3.09 0 011.87-.67v4.28a6.82 6.82 0 01-1.93-.81 1.49 1.49 0 01-.67-1.31 1.93 1.93 0 01.73-1.53z"/></g></g></symbol><symbol id="fits" viewBox="0 0 56.42 60.18"><path class="cls-1" d="M14.21 24.58h-1.08a3.68 3.68 0 01-3.67-3.67v-9.09a3.67 3.67 0 013.67-3.67h.77a8.38 8.38 0 018.37 6.56 8.22 8.22 0 01-8.06 9.87zM13.13 9.72a2.11 2.11 0 00-2.1 2.1v9.09a2.11 2.11 0 002.1 2.1h1.08a6.63 6.63 0 005.14-2.42A6.73 6.73 0 0020.73 15a6.83 6.83 0 00-6.83-5.3zM43.29 24.58h-.76A8.4 8.4 0 0134.15 18a8.22 8.22 0 018.06-9.86h1.08A3.67 3.67 0 0147 11.82v9.09a3.68 3.68 0 01-3.71 3.67zM42.21 9.72a6.6 6.6 0 00-5.13 2.42 6.74 6.74 0 00-1.39 5.57A6.84 6.84 0 0042.53 23h.76a2.1 2.1 0 002.1-2.1v-9.08a2.1 2.1 0 00-2.1-2.1z"/><path class="cls-1" d="M39.38 32.05H17.05a4.42 4.42 0 01-4.42-4.41V23.8a.79.79 0 011.58 0v3.84a2.84 2.84 0 002.84 2.83h22.33a2.84 2.84 0 002.84-2.83V23.8a.79.79 0 111.57 0v3.84a4.42 4.42 0 01-4.41 4.41zM43 9.72a.78.78 0 01-.78-.79V4.41a2.85 2.85 0 00-2.84-2.84H17.05a2.84 2.84 0 00-2.84 2.84v4.52a.79.79 0 11-1.58 0V4.41A4.42 4.42 0 0117.05 0h22.33a4.42 4.42 0 014.41 4.41v4.52a.79.79 0 01-.79.79z"/><path class="cls-1" d="M24.6 40.27a.78.78 0 01-.78-.78v-8.23a.79.79 0 111.57 0v8.23a.78.78 0 01-.79.78zM31.82 40.27a.78.78 0 01-.79-.78v-8.23a.79.79 0 111.57 0v8.23a.78.78 0 01-.78.78zM26.34 48.06a.78.78 0 01-.79-.78v-12.7a.79.79 0 111.57 0v12.7a.78.78 0 01-.78.78zM30.09 48.06a.78.78 0 01-.79-.78v-12.7a.79.79 0 111.57 0v12.7a.78.78 0 01-.78.78zM10.25 20.68a3.84 3.84 0 110-7.68.79.79 0 010 1.58 2.27 2.27 0 100 4.53.79.79 0 010 1.57z"/><path class="cls-1" d="M24.6 39.78a2.6 2.6 0 010-5.19.79.79 0 110 1.57 1 1 0 000 2.05.79.79 0 110 1.57zM46.18 20.68a.79.79 0 110-1.57 2.27 2.27 0 000-4.53.79.79 0 110-1.58 3.84 3.84 0 110 7.68zM35.68 38h-3.86a.79.79 0 110-1.57h3.86a.79.79 0 010 1.57zM55.64 60.18H.79a.79.79 0 01-.79-.79v-1.85a4.75 4.75 0 014.75-4.75h46.92a4.75 4.75 0 014.75 4.75v1.85a.79.79 0 01-.78.79zM1.57 58.6h53.28v-1.06a3.19 3.19 0 00-3.18-3.18H4.75a3.19 3.19 0 00-3.18 3.18z"/><path class="cls-1" d="M49.47 54.36a.78.78 0 01-.52-.19C45.35 51.05 37.22 49 28.21 49s-17.14 2-20.74 5.14a.79.79 0 11-1-1.19c3.87-3.35 12.41-5.52 21.77-5.52S46.12 49.63 50 53a.79.79 0 01.08 1.11.78.78 0 01-.61.25zM34.78 6.93H21.65a.79.79 0 110-1.57h13.13a.79.79 0 010 1.57zM34.78 26.65H21.65a.79.79 0 110-1.57h13.13a.79.79 0 010 1.57z"/></symbol><symbol id="geo" viewBox="0 0 52 54"><g id="&#x421;&#x43B;&#x43E;&#x439;_2"><g clip-path="url(#clip-path)" id="&#x421;&#x43B;&#x43E;&#x439;_1-2"><path class="cls-3" d="M25.25 41.67A1 1 0 0026 42a.92.92 0 00.75-.34c.35-.39 8.48-9.7 13-20a15 15 0 001.48-6.5 15.26 15.26 0 00-30.51 0 15 15 0 001.45 6.47C16.65 32 24.9 41.27 25.25 41.67M26 2a13.22 13.22 0 0113.2 13.17 13.06 13.06 0 01-1.3 5.67c-3.6 8.24-9.78 16.05-11.9 18.62-2.15-2.56-8.42-10.38-12-18.65a13 13 0 01-1.27-5.64A13.23 13.23 0 0126 2"/><path class="cls-3" d="M26 22.23A7.24 7.24 0 1018.71 15 7.24 7.24 0 0026 22.23m0-12.47A5.24 5.24 0 1120.71 15 5.25 5.25 0 0126 9.76M52 52.75l-6-23a1 1 0 00-.6-.68l-5-2-.74 1.86 4.53 1.81 5.32 20.38-10-5a1 1 0 00-.87 0L26 51.9l-12.58-5.81a1 1 0 00-.87 0l-10 5 5.29-20.35 4.53-1.81-.74-1.86-5 2a1 1 0 00-.6.68l-6 23a1 1 0 00.34 1 1 1 0 001.08.11L13 48.11l12.56 5.8a1 1 0 00.84 0l12.6-5.8 11.57 5.78A.93.93 0 0051 54a1 1 0 00.63-.22 1 1 0 00.34-1"/></g></g></symbol><symbol id="glasses" viewBox="0 0 32.68 59.86"><path class="cls-1" d="M16.34 54.59a4.09 4.09 0 114.09-4.09 4.09 4.09 0 01-4.09 4.09zm0-6.62a2.53 2.53 0 102.53 2.53 2.53 2.53 0 00-2.53-2.5z"/><path class="cls-1" d="M27.32 59.86h-22A5.36 5.36 0 010 54.5V15.4a4.34 4.34 0 014.34-4.34h.48a6.25 6.25 0 006.24-6.24v-.48A4.34 4.34 0 0115.4 0h11.92a5.36 5.36 0 015.36 5.36V54.5a5.36 5.36 0 01-5.36 5.36zm-23-47.25a2.79 2.79 0 00-2.76 2.79v39.1a3.81 3.81 0 003.8 3.81h22a3.82 3.82 0 003.81-3.81V5.36a3.81 3.81 0 00-3.81-3.8H15.4a2.79 2.79 0 00-2.79 2.78v.48a7.79 7.79 0 01-7.79 7.79z"/><path class="cls-1" d="M1.83 13.7a.78.78 0 01-.55-1.33L12.54 1.11a.78.78 0 011.1 0 .77.77 0 010 1.1L2.38 13.47a.78.78 0 01-.55.23z"/></symbol><symbol id="grid" viewBox="0 0 15 15"><g id="&#x421;&#x43B;&#x43E;&#x439;_2"><g id="&#x421;&#x43B;&#x43E;&#x439;_1-2"><path class="cls-1" d="M0 0h6v6H0zM9 0h6v6H9zM9 9h6v6H9zM0 9h6v6H0z"/></g></g></symbol><symbol id="list" viewBox="0 0 20 15"><g id="&#x421;&#x43B;&#x43E;&#x439;_2"><g id="&#x421;&#x43B;&#x43E;&#x439;_1-2"><path class="cls-1" d="M0 0h3v3H0zM0 6h3v3H0zM0 12h3v3H0zM6 1h14v1H6zM6 7h14v1H6zM6 13h14v1H6z"/></g></g></symbol><symbol id="mobile" viewBox="0 0 48.7 61.57"><path class="cls-1" d="M3.6 52.18h23.79v1.23H3.6zM3.6 16.48h23.79v1.23H3.6z"/><path class="cls-1" d="M23 61.57H8a8 8 0 01-8-8V19.32a8 8 0 018-8h15a8 8 0 018 8v34.27a8 8 0 01-8 7.98zm-15-49a6.76 6.76 0 00-6.75 6.76v34.26A6.76 6.76 0 008 60.34h15a6.76 6.76 0 006.76-6.75V19.32A6.76 6.76 0 0023 12.56z"/><path class="cls-1" d="M15.5 59.17a2.25 2.25 0 112.25-2.25 2.25 2.25 0 01-2.25 2.25zm0-3.28a1 1 0 101 1 1 1 0 00-1-1zM18.45 15.16h-5.9a.61.61 0 110-1.22h5.9a.61.61 0 110 1.22zM47.33 44.58a1.76 1.76 0 01-1.76 1.76H31v1.37h14.57a3.13 3.13 0 003.13-3.13v-3.92h-1.37zM45.57 0H24.75a3.13 3.13 0 00-3.13 3.12v3.11H23V3.12a1.76 1.76 0 011.76-1.75h20.81a1.76 1.76 0 011.76 1.75v3.11h1.37V3.12A3.13 3.13 0 0045.57 0z"/><path class="cls-1" d="M23 6.23h-1.38V11.43H23V7.61h24.33v31.68H31.04v1.37H48.7V6.23H23zM32.57 42.87h5.19v1.37h-5.19zM32.3 3.23h1.66V4.6H32.3zM34.89 3.23h4.52V4.6h-4.52z"/><path class="cls-1" d="M31.04 21.76v1.94l5.78-5.78-.97-.97-4.81 4.81zM42.65 16.54L31.04 28.16v1.94l12.58-12.59-.97-.97z"/></symbol><symbol id="mobiles" viewBox="0 0 48.7 61.57"><g id="&#x421;&#x43B;&#x43E;&#x439;_2"><g id="Layer_1"><g id="_&#x413;&#x440;&#x443;&#x43F;&#x43F;&#x430;_"><path class="cls-1" d="M3.6 52.18h23.79v1.23H3.6zM3.6 16.48h23.79v1.23H3.6z"/></g><path class="cls-1" d="M23 61.57H8a8 8 0 01-8-8V19.32a8 8 0 018-8h15a8 8 0 018 8v34.27a8 8 0 01-8 7.98zm-15-49a6.76 6.76 0 00-6.75 6.76v34.26A6.76 6.76 0 008 60.34h15a6.76 6.76 0 006.76-6.75V19.32A6.76 6.76 0 0023 12.56z"/><path class="cls-1" d="M15.5 59.17a2.25 2.25 0 112.25-2.25 2.25 2.25 0 01-2.25 2.25zm0-3.28a1 1 0 101 1 1 1 0 00-1-1zM18.45 15.16h-5.9a.61.61 0 110-1.22h5.9a.61.61 0 110 1.22z"/><path d="M47.33 3.12a1.76 1.76 0 00-1.76-1.75H24.75A1.76 1.76 0 0023 3.12v3.11h24.33zM34 4.61h-1.7V3.23H34zm5.45 0h-4.56V3.23h4.52z"/><path class="cls-1" d="M47.33 44.58a1.76 1.76 0 01-1.76 1.76H31v1.37h14.57a3.13 3.13 0 003.13-3.13v-3.92h-1.37zM45.57 0H24.75a3.13 3.13 0 00-3.13 3.12v3.11H23V3.12a1.76 1.76 0 011.76-1.75h20.81a1.76 1.76 0 011.76 1.75v3.11h1.37V3.12A3.13 3.13 0 0045.57 0z"/><path class="cls-1" d="M23 6.23h-1.38V11.43H23V7.61h24.33v31.68H31.04v1.37H48.7V6.23H23zM32.57 42.87h5.19v1.37h-5.19zM32.3 3.23h1.66V4.6H32.3zM34.89 3.23h4.52V4.6h-4.52z"/><path class="cls-1" d="M31.04 21.76v1.94l5.78-5.78-.97-.97-4.81 4.81zM42.65 16.54L31.04 28.16v1.94l12.58-12.59-.97-.97z"/></g></g></symbol><symbol id="open-cats" viewBox="0 0 11.41 7.12"><g><path d="M5.71 7.12L0 1.41 1.41 0l4.3 4.29L10 0l1.41 1.41-5.7 5.71z"/></g></symbol><symbol id="open" viewBox="0 0 10.71 6.06"><g><path d="M5.35 6.06L0 .71.71 0l4.64 4.65L10 0l.71.71-5.36 5.35z"/></g></symbol><symbol id="plays" viewBox="0 0 75.94 60.05"><path class="cls-1" d="M59.69 37.63a5.05 5.05 0 01-3.56-1.5l-8.24-8.25H28.05l-8.24 8.25a5.08 5.08 0 01-8.6-4.38l3.29-21A12.64 12.64 0 0127.05 0h21.84a12.64 12.64 0 0112.55 10.74l3.29 21A5 5 0 0162 37.06a5.14 5.14 0 01-2.31.57zM27.44 26.4H48.5l8.68 8.68A3.59 3.59 0 0063.27 32L60 11a11.17 11.17 0 00-11.11-9.52H27.05A11.17 11.17 0 0016 11l-3.33 21a3.59 3.59 0 006.09 3.1z"/><path class="cls-1" d="M16.25 37.63a5.14 5.14 0 01-2.33-.57 5 5 0 01-2.71-5.31l3.29-21A12.64 12.64 0 0127.05 0h21.84a12.64 12.64 0 0112.55 10.74l.15 1.08a11.21 11.21 0 01-.28 4.58 10.51 10.51 0 01-4.52 6 12.07 12.07 0 01-6.79 2H31.45l-3.18 3.28-8.46 8.46a5.05 5.05 0 01-3.56 1.49zm10.8-36.15A11.17 11.17 0 0016 11l-3.33 21a3.59 3.59 0 006.09 3.1l8.46-8.46 3.6-3.7H50a10.63 10.63 0 006-1.77A9 9 0 0059.89 16a9.64 9.64 0 00.23-4L60 11a11.17 11.17 0 00-11.11-9.52z"/><path class="cls-1" d="M29.05 17.29h-5.32v-3h-3V9h3V6h5.32v3h3v5.33h-3zm-3.85-1.48h2.37v-3h3v-2.35h-3v-3H25.2v3h-3v2.37h3zM45.09 13.07a1.43 1.43 0 111.42-1.43 1.43 1.43 0 01-1.42 1.43zM45 11.64h.05zM52.47 13.07a1.43 1.43 0 111.43-1.43 1.43 1.43 0 01-1.43 1.43zm0-1.43zM48.78 9.06a1.43 1.43 0 111.43-1.43 1.43 1.43 0 01-1.43 1.43zm-.05-1.43h.05zM48.78 17.09a1.43 1.43 0 111.43-1.43 1.43 1.43 0 01-1.43 1.43zm0-1.48v.05a.05.05 0 000-.05z"/><g><path class="cls-1" d="M75.94 60.05H0l4.32-14a3.12 3.12 0 013-2.21h61.31a3.12 3.12 0 013 2.21zM2 58.58h71.94l-3.73-12.07a1.64 1.64 0 00-1.58-1.17H7.31a1.64 1.64 0 00-1.58 1.17z"/><path class="cls-1" d="M3.27 51.22h28.39v1.48H3.27z"/><path class="cls-1" d="M30.93 44.6h1.48v14.71h-1.48zM37.4 51.22h1.7v1.48h-1.7zM41.27 51.22h1.71v1.48h-1.71zM45.14 51.22h1.71v1.48h-1.71z"/></g></symbol><symbol id="power-up" viewBox="0 0 58.88 59.69"><path class="cls-1" d="M34.19 35.53H8.4A8.41 8.41 0 010 27.12V1.63A.76.76 0 01.76.87h41.08a.76.76 0 01.76.76v25.49a8.42 8.42 0 01-8.41 8.41zM1.52 2.39v24.73A6.89 6.89 0 008.4 34h25.79a6.89 6.89 0 006.88-6.89V2.39z"/><path class="cls-1" d="M35 42.6H7.65a.77.77 0 01-.77-.76v-7.07a.77.77 0 011.53 0v6.31h25.78v-6.31a.76.76 0 011.52 0v7.07a.76.76 0 01-.71.76z"/><path class="cls-1" d="M14.35 59.69a3 3 0 01-3-3V41.84a.76.76 0 011.52 0v14.82a1.52 1.52 0 003 0V41.84a.76.76 0 011.52 0v14.82a3 3 0 01-3.04 3.03z"/><path class="cls-1" d="M16.63 51.15h-4.55a.76.76 0 01-.76-.76.77.77 0 01.76-.77h4.55a.77.77 0 01.76.77.76.76 0 01-.76.76zM28.71 59.69a3 3 0 01-3-3V41.84a.76.76 0 111.52 0v14.82a1.52 1.52 0 003 0V41.84a.76.76 0 011.52 0v14.82a3 3 0 01-3.04 3.03z"/><path class="cls-1" d="M31 51.15h-4.57a.76.76 0 01-.76-.76.77.77 0 01.76-.77H31a.77.77 0 01.76.77.76.76 0 01-.76.76zM58.12 29.77H47.68a.76.76 0 01-.76-.76V8.56a.77.77 0 01.76-.76h10.44a.77.77 0 01.76.76V29a.76.76 0 01-.76.77zm-9.68-1.52h8.92V9.33h-8.92z"/><path class="cls-1" d="M56.47 9.33a.77.77 0 01-.76-.77v-7h-5.62v7a.76.76 0 11-1.52 0V.76a.76.76 0 01.76-.76h7.14a.76.76 0 01.76.76v7.8a.77.77 0 01-.76.77z"/><path class="cls-1" d="M52.9 8.67a.76.76 0 01-.76-.76V.76a.76.76 0 011.52 0v7.15a.76.76 0 01-.76.76zM44.05 59.23a.76.76 0 010-1.52 8.1 8.1 0 008.09-8.09V29a.76.76 0 111.52 0v20.62a9.62 9.62 0 01-9.61 9.61z"/></symbol><symbol id="powerbanks" viewBox="0 0 53.84 60.39"><path class="cls-1" d="M16.92 52.63h-.21a3.9 3.9 0 01-3.89-3.89v-6.42a.59.59 0 01.59-.59h6.81a.59.59 0 01.58.59v6.42a3.89 3.89 0 01-3.88 3.89zM14 42.91v5.83a2.71 2.71 0 002.71 2.71h.21a2.71 2.71 0 002.71-2.71v-5.83z"/><path class="cls-1" d="M20.22 44.67a.59.59 0 01-.59-.57.58.58 0 01.57-.6c7.26-.17 11.48-.86 12.63-1.38-1.38-.64-7-1.4-15.72-1.4s-14.34.76-15.71 1.4c1.11.5 5.13 1.17 12 1.36a.59.59 0 01.57.6.62.62 0 01-.61.57C4.51 44.41 0 43.56 0 42.12c0-2.39 13.1-2.58 17.11-2.58s17.11.19 17.11 2.58c0 1.84-7.61 2.4-14 2.55z"/><path class="cls-1" d="M33.63 42.71a.58.58 0 01-.58-.59V2.71c-.84-.66-6.68-1.54-15.94-1.54S2 2.05 1.17 2.71v39.41a.59.59 0 11-1.17 0V2.58C0 .19 13.1 0 17.11 0s17.11.19 17.11 2.58v39.54a.58.58 0 01-.59.59z"/><path class="cls-1" d="M19.6 34.64a.59.59 0 01-.42-.18.59.59 0 010-.83 2.92 2.92 0 000-4.14 3 3 0 00-4.14 0 2.92 2.92 0 000 4.14.59.59 0 01-.83.83 4.1 4.1 0 115.8 0 .55.55 0 01-.41.18z"/><path class="cls-1" d="M17.11 36.66a.59.59 0 01-.59-.59v-4.69a.59.59 0 011.18 0v4.69a.59.59 0 01-.59.59zM13.59 5.65a.54.54 0 01-.22-.05.5.5 0 01-.19-.13.54.54 0 01-.18-.41.6.6 0 01.18-.42.52.52 0 01.19-.12.58.58 0 01.45 0 .76.76 0 01.19.12.63.63 0 01.17.42.57.57 0 01-.17.41.59.59 0 01-.19.13.64.64 0 01-.23.05zM17.11 5.65a.56.56 0 01-.42-.18.64.64 0 01-.13-.19.54.54 0 010-.22.59.59 0 011-.42.59.59 0 01.17.42.54.54 0 010 .22.43.43 0 01-.13.19.55.55 0 01-.49.18zM20.62 5.65a.58.58 0 01-.41-.17.6.6 0 010-.84.62.62 0 01.19-.12.6.6 0 01.64.12.59.59 0 01.17.42.61.61 0 01-.17.42.59.59 0 01-.42.17zM51.06 21.94h-3a2.77 2.77 0 01-2.78-2.78V6.86a.58.58 0 01.58-.58h7.4a.58.58 0 01.59.58v12.3a2.78 2.78 0 01-2.79 2.78zM46.44 7.45v11.71a1.61 1.61 0 001.61 1.61h3a1.61 1.61 0 001.61-1.61V7.45z"/><path class="cls-1" d="M52.09 7.45a.58.58 0 01-.59-.59V1.92h-3.89v4.94a.59.59 0 11-1.17 0V1.33A.58.58 0 0147 .75h5.07a.58.58 0 01.58.58v5.53a.58.58 0 01-.56.59z"/><path class="cls-1" d="M49.55 7a.58.58 0 01-.55-.6V1.33a.59.59 0 011.17 0V6.4a.58.58 0 01-.62.6zM43.69 60.39h-21a6.48 6.48 0 01-6.48-6.48V52a.59.59 0 111.17 0v1.87a5.32 5.32 0 005.31 5.31h21A5.29 5.29 0 0049 53.94V21.35a.59.59 0 011.17 0v32.59a6.45 6.45 0 01-6.48 6.45z"/></symbol><symbol id="reset" viewBox="0 0 9.79 9.79"><g id="&#x421;&#x43B;&#x43E;&#x439;_2"><g id="Layer_1"><path class="cls-1" d="M9.29 9.79a.52.52 0 01-.35-.14L.15.85a.48.48 0 010-.7.48.48 0 01.7 0l8.8 8.79a.51.51 0 010 .71.54.54 0 01-.36.14z"/><path class="cls-1" d="M.5 9.79a.5.5 0 01-.35-.85L8.94.15a.5.5 0 01.71 0 .5.5 0 010 .7l-8.8 8.8a.5.5 0 01-.35.14z"/></g></g></symbol><symbol id="ruble" viewBox="0 0 9.24 13.22"><g><g><path d="M3 1.44a8 8 0 011.54-.14c1.8 0 3 .9 3 2.46 0 1.78-1.18 2.7-3.18 2.7H3zm1.32 6.28c3.88 0 4.92-2 4.92-4C9.24 1.92 8.06 0 4.52 0A18.25 18.25 0 001.3.26v6.2H0v1.26h1.3v1.54H0v1.16h1.3v2.8H3v-2.8h4.48V9.26H3V7.72z"/></g></g></symbol><symbol id="search" viewBox="0 0 53.54 53.26"><g id="&#x421;&#x43B;&#x43E;&#x439;_2"><g id="icons"><path class="cls-1" d="M13.54 20a20 20 0 1120 20 20 20 0 01-20-20zm20 18a18 18 0 10-18-18 18 18 0 0018 18z"/><path class="cls-1" d="M37.1 6.46A14 14 0 0145.66 27a1 1 0 01-.86.5 1 1 0 01-.5-.14 1 1 0 01-.37-1.36 12 12 0 00-7.34-17.61 1 1 0 11.51-1.93zM1.1 45.79l11.48-11.48a3.09 3.09 0 014.25 0L19 36.43a3 3 0 010 4.25L7.47 52.15a4.06 4.06 0 01-2.85 1.11A3.73 3.73 0 013.11 53L3 52.88.38 50.31l-.08-.16a4.17 4.17 0 01.8-4.36zm1 3.39l2 2a2.23 2.23 0 002-.45l11.43-11.47a1 1 0 000-1.41l-2.12-2.12a1 1 0 00-.71-.29 1 1 0 00-.7.29L2.52 47.21a2.17 2.17 0 00-.45 1.97z"/></g></g></symbol><symbol id="shipping" viewBox="0 0 54.01 52.84"><g id="&#x421;&#x43B;&#x43E;&#x439;_2"><g clip-path="url(#clip-path)" id="&#x421;&#x43B;&#x43E;&#x439;_1-2"><path class="cls-3" d="M52.83 38.85l-25.44 4.64A6.4 6.4 0 0021.72 40h-.36L13 3.76A4.84 4.84 0 0010.72.68 4.76 4.76 0 007 .18L.75 1.87a1 1 0 00-.72 1 .89.89 0 000 .51l1.15 3.51a1 1 0 001 .69h.22L7.94 6.3a1 1 0 00.76-1.19 1 1 0 00-1.2-.76L2.8 5.41l-.6-1.86 5.28-1.44a2.82 2.82 0 012.22.29A2.86 2.86 0 0111 4.21l8.4 36.27a6.4 6.4 0 108.72 6 6.92 6.92 0 00-.09-1l25.16-4.59a1 1 0 00.81-1.23 1 1 0 00-1.17-.81m-31.11 12a4.4 4.4 0 114.4-4.4 4.41 4.41 0 01-4.4 4.4"/><path class="cls-3" d="M21.72 45a1.4 1.4 0 101.4 1.4 1.4 1.4 0 00-1.4-1.4M25.35 36.87a3.06 3.06 0 003 2.42 3.51 3.51 0 00.55 0l19.26-3.58a3 3 0 002.36-3.51l-3.84-18.38a3.06 3.06 0 00-3.54-2.37L23.88 15A3 3 0 0022 16.28a2.94 2.94 0 00-.44 2.25zM37.48 18.1l-4.61.9-.87-3.46 4.75-.88zm-13.86-.7a1 1 0 01.62-.41l5.83-1.08 1.09 4.45a1 1 0 001 .76.55.55 0 00.18 0l6.54-1.22a1 1 0 00.64-.43 1 1 0 00.15-.75l-.88-4.4 4.75-.89h.18a1.06 1.06 0 011 .83l3.83 18.33a1 1 0 01-.14.73.91.91 0 01-.62.4l-19.27 3.55a1.06 1.06 0 01-1.21-.81l-3.83-18.33a1 1 0 01.14-.73"/></g></g></symbol><symbol id="shop" viewBox="0 0 54 54"><g id="&#x421;&#x43B;&#x43E;&#x439;_2"><g clip-path="url(#clip-path)" id="&#x421;&#x43B;&#x43E;&#x439;_1-2"><path class="cls-3" d="M49 0H5a5 5 0 00-5 5v44a5 5 0 005 5h44a5 5 0 005-5V5a5 5 0 00-5-5M7 52H5a3 3 0 01-3-3V5a3 3 0 013-3h35a3 3 0 013 3v44a3 3 0 01-3 3zm45-3a3 3 0 01-3 3h-5a4.92 4.92 0 001-3V5a4.92 4.92 0 00-1-3h5a2.9 2.9 0 011.28.3l-3 3a1 1 0 000 1.42 1 1 0 001.42 0l3-3A2.87 2.87 0 0152 5z"/><path class="cls-3" d="M11 10a2 2 0 012 2 2 2 0 01-.21.9 1 1 0 101.78.91A4.05 4.05 0 0015 12a4 4 0 00-8 0 4.06 4.06 0 00.44 1.84 1 1 0 00.9.54 1 1 0 00.45-.11 1 1 0 00.43-1.35A2 2 0 019 12a2 2 0 012-2M34 8a4 4 0 00-4 4 4.06 4.06 0 00.44 1.84 1 1 0 00.89.54 1 1 0 00.46-.11 1 1 0 00.43-1.35A2 2 0 0132 12a2 2 0 014 0 2 2 0 01-.21.9 1 1 0 101.78.91A4.05 4.05 0 0038 12a4 4 0 00-4-4"/><path class="cls-3" d="M34 12a1 1 0 00-1 1v5.5c0 5.24-4.71 9.5-10.5 9.5S12 23.74 12 18.5V13a1 1 0 00-2 0v5.5C10 24.84 15.61 30 22.5 30S35 24.84 35 18.5V13a1 1 0 00-1-1"/></g></g></symbol><symbol id="usb" viewBox="0 0 76.01 59.73"><path class="cls-1" d="M62 26.73h-9.09a.84.84 0 01-.84-.84V8a.85.85 0 01.84-.84H62a.84.84 0 01.84.84v17.89a.83.83 0 01-.84.84zm-8.29-1.68h7.46V8.85h-7.42z"/><path class="cls-1" d="M60.6 8.85a.85.85 0 01-.84-.85V2h-4.57v6a.84.84 0 01-1.68 0V1.19a.84.84 0 01.84-.84h6.25a.84.84 0 01.84.84V8a.85.85 0 01-.84.85z"/><path class="cls-1" d="M57.48 8.27a.83.83 0 01-.84-.84V1.19a.84.84 0 111.68 0v6.24a.84.84 0 01-.84.84zM50.24 48.65H.84a.84.84 0 010-1.65h49.4a6.06 6.06 0 006.4-6.4V25.89a.84.84 0 011.68 0v14.68a7.73 7.73 0 01-8.08 8.08zM45.51 27.27H.84a.85.85 0 01-.84-.84V7a.85.85 0 01.84-.84h44.67a.84.84 0 01.84.84v19.43a.84.84 0 01-.84.84zM1.68 25.59h43V7.79h-43z"/><path class="cls-1" d="M23.18 31.09a3.64 3.64 0 01-3.65-3.65.84.84 0 011.68 0 2 2 0 103.94 0 .84.84 0 011.67 0 3.64 3.64 0 01-3.64 3.65z"/><path class="cls-1" d="M23.18 59.73a.83.83 0 01-.84-.83V30.25a.84.84 0 011.67 0V58.9a.83.83 0 01-.83.83zM41.7 7.79a.83.83 0 01-.84-.79V2H5.44v5a.84.84 0 01-1.68 0V1.19A.84.84 0 014.6.35h37.1a.83.83 0 01.83.84V7a.83.83 0 01-.83.79z"/><path class="cls-1" d="M10.44 7.79A.84.84 0 019.6 7V3.69a.84.84 0 111.68 0V7a.83.83 0 01-.84.79zM13.62 7.79a.84.84 0 01-.84-.79V3.69a.84.84 0 111.68 0V7a.84.84 0 01-.84.79zM16.8 7.79A.83.83 0 0116 7V3.69a.84.84 0 111.67 0V7a.83.83 0 01-.87.79zM20 7.79a.84.84 0 01-.87-.79V3.69a.84.84 0 011.68 0V7a.83.83 0 01-.81.79zM23.15 7.79a.84.84 0 01-.84-.79V3.69a.84.84 0 011.68 0V7a.84.84 0 01-.84.79zM26.33 7.79a.83.83 0 01-.84-.79V3.69a.84.84 0 111.67 0V7a.83.83 0 01-.83.79zM29.5 7.79a.84.84 0 01-.84-.79V3.69a.84.84 0 011.68 0V7a.83.83 0 01-.84.79zM32.68 7.79a.83.83 0 01-.84-.79V3.69a.84.84 0 111.68 0V7a.84.84 0 01-.84.79zM35.85 7.79A.83.83 0 0135 7V3.69a.84.84 0 111.67 0V7a.83.83 0 01-.82.79zM35.85 22.46H10.44a.84.84 0 010-1.68h25.41a.84.84 0 110 1.68zM75.18 29.28h-7.87a.85.85 0 01-.84-.84V13.36a.84.84 0 01.84-.83h7.87a.83.83 0 01.83.83v15.08a.84.84 0 01-.83.84zm-7-1.68h6.19V14.2h-6.22zM74.55 32h-6.61a.84.84 0 010-1.68h6.61a.84.84 0 110 1.68zM73.84 34.75h-5.19a.84.84 0 010-1.68h5.19a.84.84 0 010 1.68zM73.14 37.55h-3.79a.84.84 0 010-1.68h3.79a.84.84 0 110 1.68zM72.43 40.34h-2.37a.84.84 0 110-1.67h2.37a.84.84 0 110 1.67z"/><path class="cls-1" d="M73.23 14.2a.83.83 0 01-.84-.84V6.22H70.1v7.14a.84.84 0 11-1.68 0v-8a.84.84 0 01.84-.84h4a.84.84 0 01.84.84v8a.84.84 0 01-.87.84z"/><path class="cls-1" d="M71.24 6.22a.84.84 0 01-.84-.83V.84a.84.84 0 011.68 0v4.55a.83.83 0 01-.84.83zM71.24 59.73a.84.84 0 01-.84-.83V39.5a.84.84 0 011.68 0v19.4a.83.83 0 01-.84.83z"/></symbol><symbol id="user" viewBox="0 0 23 23"><g><path d="M21.38 19.778c-.432-1.419-3.919-3.34-5.54-4.048a.412.412 0 00-.344.007l-3.932 1.9-3.523-1.892a.413.413 0 00-.345-.02c-1.411.549-5.534 2.477-5.947 4.07-.294 1.139-.411 1.697-.416 1.72a.425.425 0 00-.01.084c0 .56.282.824.518.948.347.181.763.166 1.191.157.092-.001.187-.003.281-.003h16.483c.123 0 .246.004.365.009.12.004.237.008.348.008.316 0 1.276 0 1.276-1.064 0-.432-.04-.673-.406-1.876zm-.871 2.116c-.102 0-.209-.004-.32-.008-.127-.004-.26-.01-.393-.01H3.313l-.296.001c-.088.002-.174 0-.258 0h-.003c-.113 0-.405.003-.533-.064-.026-.014-.068-.032-.074-.174.033-.153.155-.698.398-1.637.241-.93 3.173-2.595 5.272-3.44l3.54 1.9a.412.412 0 00.375.009l3.948-1.909c2.321 1.043 4.678 2.696 4.909 3.456.352 1.158.37 1.325.37 1.636 0 .19 0 .24-.452.24zM7.228 10.882c.223.556.476.954.743 1.373.075.118.152.238.229.364.267.44.538.768.84 1.017-.02.406-.07.905-.162 1.276a.412.412 0 00.8.197c.124-.501.181-1.186.194-1.66a.412.412 0 00-.177-.35c-.281-.195-.533-.484-.792-.91-.08-.13-.159-.254-.237-.377-.286-.449-.532-.836-.742-1.419a.442.442 0 00-.373-.272c-.04-.004-.15-.069-.208-.175-.416-.763-.594-1.93-.516-2.168.01-.007.057-.022.157-.021.117.01.224-.04.305-.122a.412.412 0 00.119-.305c-.087-2.364.783-3.635 1.528-4.285a.412.412 0 00.089-.512c.351-.236.942-.22.95-.219l.022-.411.34-.234c-.028-.062.027-.213.105-.35a2.3 2.3 0 00.838.416c.847.234 1.46.476 1.842.644 1.756.696 2.712 2.5 2.621 4.952a.412.412 0 00.404.428c.076.001.115.017.112.009.089.251-.09 1.42-.505 2.182-.059.108-.166.175-.206.18a.412.412 0 00-.33.266c-.213.576-.472.981-.747 1.411-.083.13-.167.263-.252.402-.25.41-.477.687-.715.87a.412.412 0 00-.16.33c.002.375.033 1.1.21 1.747a.412.412 0 00.795-.217c-.129-.47-.167-1.013-.177-1.345.257-.235.5-.544.75-.956.082-.134.163-.262.244-.387.257-.404.523-.82.751-1.38a1.23 1.23 0 00.56-.526c.48-.88.757-2.293.56-2.851a.792.792 0 00-.464-.48c-.004-2.611-1.165-4.616-3.133-5.395A14.377 14.377 0 0011.5.94c-.393-.11-.582-.287-.601-.32a.412.412 0 00-.488-.338c-.36.072-.674.554-.798.86a1.416 1.416 0 00-.097.371c-.546.077-1.309.34-1.52 1.109a.442.442 0 00-.02.216c-.714.799-1.396 2.099-1.399 4.152a.794.794 0 00-.516.5c-.198.558.079 1.969.559 2.85.137.25.363.446.608.541z"/></g></symbol>
<symbol id="userLogin" viewBox="0 0 23 23">
  <g>
    <path fill="#00A8C1" d="M21.3794556,19.7781982c-0.4313965-1.4190674-3.918396-3.3399048-5.5394897-4.0477295
	      c-0.1106567-0.0480957-0.2363892-0.0458984-0.3442993,0.0066528l-0.6619263,0.3199463
	      c-0.2492723-0.3860502-0.3234444-0.5714808-0.5354004-1.3449707c-0.0857544-0.4095459-0.1177368-0.8383789-0.126709-1.117981
	      c0.2575073-0.2348022,0.4997559-0.5440674,0.7508545-0.956543c0.0817261-0.1339722,0.1629639-0.2611694,0.2432861-0.3869019
        c0.2575073-0.4031982,0.5230713-0.8188477,0.7512817-1.3796387c0.2265015-0.1021729,0.4321289-0.2913208,0.5601196-0.5259399
        c0.4798584-0.8800659,0.756897-2.2926636,0.5595703-2.8514404c-0.0792847-0.2250977-0.241272-0.3900757-0.4638062-0.4802246
        c-0.0040283-2.6105957-1.1645508-4.6151733-3.1333008-5.3948364c-0.3913574-0.1724243-1.0454102-0.4301758-1.939209-0.6778564
        c-0.3931274-0.1088257-0.5822144-0.2871094-0.6017456-0.3204956c-0.0181274-0.1102295-0.0800781-0.2086792-0.1720581-0.2722168
        c-0.0919189-0.0637817-0.2059937-0.0877686-0.3152466-0.0651855c-0.3599854,0.0717773-0.6746216,0.553894-0.7984009,0.8602905
        c-0.0512695,0.1273804-0.0836792,0.25177-0.0969849,0.3708496c-0.5456543,0.0766602-1.30896,0.3392334-1.5206299,1.1085815
        C7.9711914,2.6917725,7.9637451,2.7668457,7.9755859,2.8386841C7.2615356,3.6376343,6.5805054,4.9380493,6.5774536,6.991272
        C6.3275757,7.0753784,6.1467285,7.2470093,6.0611572,7.4908447C5.8632202,8.048584,6.1398926,9.460022,6.6199341,10.3406982
        c0.137207,0.2508545,0.3627319,0.4466553,0.6084595,0.5414429c0.22229,0.555481,0.4758301,0.9536743,0.7423706,1.3725586
        c0.0752563,0.1182861,0.1519165,0.2385864,0.2287598,0.364563c0.2676392,0.4388428,0.5386353,0.767395,0.8406372,1.0164795
        c-0.0198364,0.3929443-0.069519,0.8690186-0.1552124,1.2357178c-0.0574951,0.2572632-0.1489258,0.590332-0.2785034,0.8245239
        c-0.0568237,0.1026611-0.111145,0.1898804-0.1617432,0.2660522l-0.4039307-0.2169189
        c-0.105835-0.0568848-0.2315674-0.0645752-0.3444214-0.020874c-1.4116211,0.5494995-5.5344238,2.477356-5.9468994,4.0712891
        c-0.2945557,1.1381836-0.4118652,1.696106-0.4168701,1.7192383c-0.0056763,0.027771-0.008667,0.0561523-0.008667,0.0845337
        c0,0.5593262,0.2810669,0.8239136,0.5166626,0.9472656c0.3471069,0.1814575,0.7631836,0.1663818,1.1918945,0.1578979
        c0.09198-0.0015869,0.1861572-0.003418,0.2807007-0.003418h16.4824219c0.1237183,0,0.24646,0.0044556,0.3649292,0.008667
        c0.1207886,0.0042725,0.2376709,0.0082397,0.3485107,0.0082397c0.3154907,0,1.2758179,0,1.2758179-1.0637207
        C21.7848511,21.222229,21.7450562,20.9814453,21.3794556,19.7781982z"/>
        </g>
</symbol>
<symbol id="wallet" viewBox="0 0 54 54">
  <g id="&#x421;&#x43B;&#x43E;&#x439;_2">
    <g clip-path="url(#clip-path)" id="&#x421;&#x43B;&#x43E;&#x439;_1-2">
      <path class="cls-3" d="M49 0H13a5 5 0 00-5 5v15H5a5 5 0 00-5 5v24a5 5 0 005 5h36a5 5 0 005-5V34h3a5 5 0 005-5V5a5 5 0 00-5-5M10 10h42v4H10zm34 39a3 3 0 01-3 3H5a3 3 0 01-3-3V25a3 3 0 013-3h36a3 3 0 013 3zm8-20a3 3 0 01-3 3h-3v-7a5 5 0 00-5-5H10v-4h42zM10 8V5a3 3 0 013-3h36a3 3 0 013 3v3z"/>
      <path class="cls-3" d="M17 45H9a1 1 0 000 2h8a1 1 0 000-2M34 45H22a1 1 0 000 2h12a1 1 0 000-2M39 26H29a1 1 0 00-1 1v6a1 1 0 001 1h10a1 1 0 001-1v-6a1 1 0 00-1-1m-1 6h-8v-4h8z"/></g></g></symbol>
    <symbol id="userLogout" viewBox="0 0 512 512">
        <g>
            <g>
                <g>
                    <path fill="#705AB8" d="M510.371,226.513c-1.088-2.603-2.645-4.971-4.629-6.955l-63.979-63.979c-8.341-8.32-21.824-8.32-30.165,0
				c-8.341,8.341-8.341,21.845,0,30.165l27.584,27.584H320.013c-11.797,0-21.333,9.557-21.333,21.333s9.536,21.333,21.333,21.333
				h119.168l-27.584,27.584c-8.341,8.341-8.341,21.845,0,30.165c4.16,4.181,9.621,6.251,15.083,6.251s10.923-2.069,15.083-6.251
				l63.979-63.979c1.984-1.963,3.541-4.331,4.629-6.955C512.525,237.606,512.525,231.718,510.371,226.513z"/>
                    <path fill="#705AB8" d="M362.68,298.667c-11.797,0-21.333,9.557-21.333,21.333v106.667h-85.333V85.333c0-9.408-6.187-17.728-15.211-20.437
				l-74.091-22.229h174.635v106.667c0,11.776,9.536,21.333,21.333,21.333s21.333-9.557,21.333-21.333v-128
				C384.013,9.557,374.477,0,362.68,0H21.347c-0.768,0-1.451,0.32-2.197,0.405c-1.003,0.107-1.92,0.277-2.88,0.512
				c-2.24,0.576-4.267,1.451-6.165,2.645c-0.469,0.299-1.045,0.32-1.493,0.661C8.44,4.352,8.376,4.587,8.205,4.715
				C5.88,6.549,3.939,8.789,2.531,11.456c-0.299,0.576-0.363,1.195-0.597,1.792c-0.683,1.621-1.429,3.2-1.685,4.992
				c-0.107,0.64,0.085,1.237,0.064,1.856c-0.021,0.427-0.299,0.811-0.299,1.237V448c0,10.176,7.189,18.923,17.152,20.907
				l213.333,42.667c1.387,0.299,2.795,0.427,4.181,0.427c4.885,0,9.685-1.685,13.525-4.843c4.928-4.053,7.808-10.091,7.808-16.491
				v-21.333H362.68c11.797,0,21.333-9.557,21.333-21.333V320C384.013,308.224,374.477,298.667,362.68,298.667z"/>
                </g>
            </g>
        </g>
        <g>
        </g>
        <g>
        </g>
        <g>
        </g>
        <g>
        </g>
        <g>
        </g>
        <g>
        </g>
        <g>
        </g>
        <g>
        </g>
        <g>
        </g>
        <g>
        </g>
        <g>
        </g>
        <g>
        </g>
        <g>
        </g>
        <g>
        </g>
        <g>
        </g>
    </symbol>

    <symbol id="star" viewBox="0 0 14 13">
      <g>
    <path d="M6.92313 0L8.49472 4.83688H13.5805L9.46603 7.82624L11.0376 12.6631L6.92313 9.67376L2.80863 12.6631L4.38023 7.82624L0.26573 4.83688H5.35153L6.92313 0Z" />
    </g>
    </symbol>

    <symbol id="favorite" viewBox="0 0 25 23">
          <g clip-path="url(#clip0_33_232)">
    <path d="M24.564 4.29365C23.9891 2.66291 22.8903 1.39037 21.4669 0.71168C20.4978 0.245082 19.4083 0 18.314 0C15.8938 0 13.6497 1.1877 12.6019 3.02111L12.486 3.21906L12.3932 3.05881C11.35 1.21598 9.10595 0.0282787 6.6857 0.0282787C5.59612 0.0282787 4.50654 0.273361 3.53752 0.739959C2.10948 1.42336 1.01062 2.6959 0.435699 4.32193C-0.231957 6.21189 -0.129954 8.42234 0.713889 10.2275C2.64731 14.3797 11.7951 22.5475 12.1846 22.8963C12.2634 22.967 12.3747 23 12.486 23C12.5091 23 12.5277 23 12.5509 23C12.6529 22.9906 12.7595 22.934 12.8337 22.8586C13.3762 22.3732 22.371 14.3184 24.2905 10.1992C25.1297 8.39406 25.2363 6.18832 24.5687 4.29836L24.564 4.29365ZM23.4466 9.79385C21.7775 13.3852 14.0485 20.4926 12.4813 21.9066C10.84 20.4172 3.20832 13.39 1.54846 9.82684C0.811255 8.23852 0.718525 6.30143 1.30736 4.64242C1.79883 3.25205 2.73077 2.16803 3.92698 1.59775C4.77546 1.19242 5.72594 0.975615 6.68106 0.975615C8.77676 0.975615 10.7055 1.97951 11.5958 3.53012L12.0872 4.3832C12.166 4.51988 12.3098 4.60943 12.4674 4.61414C12.6204 4.61414 12.7781 4.54344 12.8662 4.41148C12.8708 4.40205 12.9032 4.35492 12.9079 4.34549L13.3993 3.49242C14.2849 1.9418 16.2137 0.942623 18.3094 0.942623C19.2645 0.942623 20.215 1.15943 21.0635 1.56475C22.2597 2.13975 23.1916 3.21906 23.6831 4.61414C24.2673 6.27316 24.1792 8.21025 23.4374 9.79385H23.4466Z"/>
    <path d="M6.96865 2.95515C4.84514 2.95515 3.11572 4.71314 3.11572 6.87175C3.11572 7.50802 3.26873 8.13958 3.56083 8.69573C3.64428 8.85597 3.80656 8.94552 3.97347 8.94552C4.04766 8.94552 4.12184 8.92667 4.19139 8.88896C4.41858 8.76642 4.50667 8.48364 4.38612 8.25269C4.16821 7.82851 4.04766 7.34778 4.04766 6.86704C4.04766 5.22687 5.35979 3.89306 6.97329 3.89306C7.2283 3.89306 7.43694 3.68097 7.43694 3.42175C7.43694 3.16253 7.2283 2.95044 6.97329 2.95044L6.96865 2.95515Z"/>
    </g>
    <defs>
    <clipPath id="clip0_33_232">
    <rect/>
    </clipPath>
    </defs>
    </symbol>

    <symbol id="truck" viewBox="0 0 25 23" xmlns="http://www.w3.org/2000/svg">
    <path d="M22.8966 12.9056L20.5071 9.11056C19.8427 8.24593 18.6799 7.66667 17.6151 7.66667H15.0595V6.38889C15.0595 5.21333 14.1054 4.25926 12.9299 4.25926H12.9086C12.6914 1.87407 10.6853 0 8.2447 0C5.80415 0 3.79378 1.87407 3.58081 4.25926H3.13359C1.95804 4.25926 0.999703 5.21333 0.999703 6.38889V16.4109C0.995444 17.0924 0.991185 17.6759 1.34896 18.0422C1.52785 18.2211 1.77063 18.3148 2.06452 18.3148C2.11137 18.3148 2.171 18.3191 2.19656 18.3489C2.29452 18.4511 2.286 18.8259 2.28174 19.0091C2.28174 19.0687 2.28174 19.1198 2.28174 19.1709C2.28174 19.8481 2.62674 20.1506 2.91637 20.2826C3.21026 20.4189 3.56378 20.4402 3.93007 20.4444C4.05359 21.8756 5.2547 23 6.71989 23C8.18507 23 9.38192 21.8756 9.5097 20.4444H15.0595H15.8688C15.9923 21.8756 17.1977 23 18.6586 23C20.1195 23 21.3206 21.8756 21.4484 20.4444H21.8743C23.0499 20.4444 24.004 19.4904 24.004 18.3148V16.1852C24.004 15.1502 23.5099 13.6935 22.9008 12.9056H22.8966ZM19.8086 9.60037L22.198 13.3954C22.3386 13.5785 22.4706 13.8085 22.5941 14.0598H18.8886C18.1858 14.0598 17.6108 13.4848 17.6108 12.782V8.52278C18.3988 8.52278 19.3316 8.9913 19.8043 9.60037H19.8086ZM8.24044 0.851852C10.353 0.851852 12.0738 2.57259 12.0738 4.68519C12.0738 6.79778 10.353 8.51852 8.24044 8.51852C6.12785 8.51852 4.40711 6.79778 4.40711 4.68519C4.40711 2.57259 6.12785 0.851852 8.24044 0.851852ZM6.71563 22.1481C5.6423 22.1481 4.76489 21.275 4.76489 20.1974C4.76489 19.1198 5.63804 18.2467 6.71563 18.2467C7.79322 18.2467 8.66637 19.1198 8.66637 20.1974C8.66637 21.275 7.79322 22.1481 6.71563 22.1481ZM6.71563 17.3991C5.37822 17.3991 4.25804 18.3404 3.98118 19.5969C3.70859 19.5969 3.42748 19.5841 3.26989 19.5117C3.21452 19.4861 3.12507 19.4435 3.12507 19.1709V19.0346C3.13785 18.6683 3.15489 18.1189 2.80563 17.7569C2.67785 17.6248 2.44359 17.4672 2.06026 17.4672C2.00489 17.4672 1.9623 17.4587 1.94952 17.4459C1.83878 17.3352 1.84304 16.807 1.84304 16.4237V6.38889C1.84304 5.68611 2.41804 5.11111 3.12081 5.11111H3.56804C3.78526 7.4963 5.79137 9.37037 8.23192 9.37037C10.6725 9.37037 12.6786 7.4963 12.8958 5.11111H12.9171C13.6199 5.11111 14.1949 5.68611 14.1949 6.38889V19.5926H9.44155C9.1647 18.3404 8.04452 17.3991 6.70711 17.3991H6.71563ZM18.6543 22.1481C17.581 22.1481 16.7036 21.275 16.7036 20.1974C16.7036 19.1198 17.5767 18.2467 18.6543 18.2467C19.7319 18.2467 20.6051 19.1198 20.6051 20.1974C20.6051 21.275 19.7319 22.1481 18.6543 22.1481ZM23.1479 18.3148C23.1479 19.0176 22.5729 19.5926 21.8701 19.5926H21.3888C21.1119 18.3404 19.9917 17.3991 18.6543 17.3991C17.3169 17.3991 16.201 18.3404 15.9199 19.5926H15.0553V8.51852H16.759V12.7778C16.759 13.9533 17.713 14.9074 18.8886 14.9074H22.9221C23.0584 15.3589 23.1479 15.8146 23.1479 16.1852V18.3148Z"/>
    <path d="M6.96312 12.3889C7.07386 12.3889 7.18035 12.3463 7.26553 12.2654L8.54331 10.9876C8.62423 10.9067 8.66683 10.8002 8.66683 10.6852V7.7037C8.66683 7.46944 8.47516 7.27777 8.2409 7.27777C8.00664 7.27777 7.81498 7.46944 7.81498 7.7037V10.5105L6.66072 11.6648C6.49461 11.8309 6.49461 12.0993 6.66072 12.2654C6.7459 12.3505 6.85238 12.3889 6.96312 12.3889Z"/>
  </symbol>

  <symbol id="x" viewBox="0 0 16 16" xmlns="http://www.w3.org/2000/svg">
    <path d="M1 1L15 15" stroke="#A1A1A1"/>
    <path d="M1 15L15 1" stroke="#A1A1A1"/>
  </symbol>

  <symbol id="whatsapp" viewBox="0 0 18 18">
    <path fill-rule="evenodd" clip-rule="evenodd" d="M17.6806 6.90831C16.7027 2.8517 13.2122 0.0849118 8.9932 0.0369873C8.43762 0.0460439 7.85599 0.0917046 7.28078 0.212459C1.39507 1.40416 -1.65498 7.92831 1.21428 13.1959C1.28825 13.337 1.29391 13.4509 1.25315 13.5966C0.871566 14.9853 0.493754 16.374 0.113677 17.7577C0.0726628 17.9097 0.12802 17.9659 0.279749 17.9264C1.72004 17.5487 3.15769 17.1751 4.59684 16.7928C4.71611 16.7608 4.80972 16.7743 4.9188 16.8291C6.77238 17.7759 8.72484 18.054 10.7694 17.6577C15.6545 16.7106 18.8469 11.7434 17.681 6.90831H17.6806ZM10.2387 16.2325C9.83677 16.3008 9.43291 16.337 9.22004 16.3328C7.65482 16.3283 6.37833 15.9777 5.20451 15.2676C5.05429 15.1762 4.92332 15.1536 4.74782 15.1993C3.95898 15.4177 3.1641 15.6136 2.37413 15.8226C2.20806 15.8728 2.19221 15.8362 2.2341 15.686C2.44358 14.9351 2.6406 14.1883 2.85687 13.446C2.91688 13.2366 2.89575 13.0774 2.7761 12.8906C1.15275 10.2819 1.22107 7.03133 3.03804 4.61812C4.92559 2.10491 7.49177 1.07623 10.5622 1.7317C13.5881 2.36906 15.5168 4.32227 16.226 7.3317C17.1948 11.4476 14.4007 15.5404 10.2387 16.2325Z"/>
    <path fill-rule="evenodd" clip-rule="evenodd" d="M11.3223 13.2053C11.0049 13.2189 10.7018 13.146 10.398 13.0641C8.35455 12.477 6.82103 11.1977 5.58908 9.5132C5.12333 8.88037 4.6923 8.22489 4.54887 7.43697C4.37676 6.4898 4.64889 5.68867 5.35356 5.03282C5.57776 4.82791 6.26092 4.73697 6.53418 4.86905C6.63571 4.91923 6.70025 5.01018 6.74252 5.10603C7.00069 5.72074 7.25583 6.32603 7.50872 6.94074C7.55665 7.05923 7.53589 7.17282 7.48267 7.29131C7.35284 7.57357 7.14449 7.80112 6.93275 8.02414C6.77234 8.18829 6.76517 8.33848 6.88368 8.53433C7.60534 9.73622 8.60403 10.6106 9.90995 11.134C10.1047 11.2113 10.2515 11.1841 10.381 11.0204C10.5984 10.7517 10.8283 10.483 11.0343 10.2053C11.1755 10.0094 11.337 9.98225 11.5363 10.0732C11.9677 10.269 12.3991 10.474 12.8309 10.6789C12.9275 10.72 13.0234 10.7702 13.1189 10.8155C13.556 11.034 13.5518 11.0385 13.5141 11.5211C13.4412 12.4634 12.7343 12.9283 11.8964 13.1604C11.7118 13.2102 11.5159 13.2151 11.3227 13.2057L11.3223 13.2053Z" />
  </symbol>

  <symbol id="telegram" viewBox="0 0 17 14">
    <path d="M1.79051 5.8415C6.16221 3.93584 9.07919 2.67735 10.5377 2.06792C14.7037 0.33584 15.5698 0.0339537 16.1339 0.0245197C16.3415 0.0207461 16.5452 0.0811231 16.715 0.198104C16.8339 0.301878 16.9113 0.447161 16.9282 0.603765C16.9584 0.799991 16.966 0.998104 16.9528 1.19433C16.7264 3.56603 15.7509 9.32263 15.2547 11.9792C15.0452 13.1113 14.6301 13.4887 14.2301 13.517C13.3584 13.5962 12.6981 12.9415 11.8547 12.3849C10.5339 11.5189 9.78862 10.9811 8.50749 10.1358C7.02636 9.16037 7.98674 8.62641 8.83013 7.74716C9.05089 7.51697 12.8886 4.02641 12.9641 3.70943C12.9848 3.61509 12.9584 3.51508 12.8943 3.44339C12.8018 3.3849 12.6848 3.37358 12.583 3.4132C12.4509 3.44339 10.3415 4.83773 6.25655 7.59433C5.65843 8.00565 5.11504 8.20565 4.63013 8.19433C4.09428 8.18301 3.06409 7.89244 2.29806 7.64339C1.35466 7.33773 0.611263 7.17735 0.677301 6.65848C0.709376 6.39622 1.07919 6.12452 1.79051 5.8415Z" />
  </symbol>

  <symbol id="input-search" viewBox="0 0 22 21">
  <g clip-path="url(#clip0_269_562)">
  <path d="M6.34637 8.51033C6.34637 4.36838 9.8567 1 14.1732 1C18.4897 1 22 4.36838 22 8.51033C22 12.6523 18.4897 16.0207 14.1732 16.0207C9.8567 16.0207 6.34637 12.6523 6.34637 8.51033ZM14.1732 15.2696C18.0553 15.2696 21.2173 12.2392 21.2173 8.51033C21.2173 4.78145 18.0553 1.75103 14.1732 1.75103C10.2911 1.75103 7.12905 4.78145 7.12905 8.51033C7.12905 12.2392 10.2911 15.2696 14.1732 15.2696Z" />
  <path d="M1.48196 18.195L5.97456 13.884C6.41677 13.4597 7.19163 13.4597 7.63384 13.884L8.46348 14.6801C8.92135 15.1195 8.92135 15.833 8.46348 16.2723L3.97089 20.5833C3.70087 20.8424 3.28213 21.0001 2.85557 21.0001C2.64425 21.0001 2.44075 20.9588 2.26856 20.8837L2.20203 20.8536L1.19629 19.8886L1.16498 19.8247C0.922346 19.3065 1.06323 18.5893 1.47805 18.1912L1.48196 18.195ZM1.86156 19.468L2.64816 20.2228C2.88688 20.2941 3.25474 20.2153 3.42301 20.0538L7.91561 15.7429C8.06823 15.5964 8.06823 15.3598 7.91561 15.2134L7.08596 14.4173C7.01161 14.3459 6.91377 14.3084 6.80811 14.3084C6.70245 14.3084 6.60462 14.3459 6.53026 14.4173L2.03767 18.7282C1.86157 18.8972 1.78721 19.2352 1.86156 19.4717V19.468Z"/>
  </g>
  <defs>
  <clipPath id="clip0_269_562">
  <rect transform="matrix(-1 0 0 1 22 0)"/>
  </clipPath>
  </defs></symbol>
</svg>